<mxfile host="Electron" agent="Mozilla/5.0 (Windows NT 10.0; Win64; x64) AppleWebKit/537.36 (KHTML, like Gecko) draw.io/25.0.1 Chrome/128.0.6613.186 Electron/32.2.6 Safari/537.36" version="25.0.1">
  <diagram name="Page-1" id="3yqpxKQvHaOyZTGhgoW6">
    <mxGraphModel dx="1838" dy="1126" grid="1" gridSize="10" guides="1" tooltips="1" connect="1" arrows="1" fold="1" page="1" pageScale="1" pageWidth="850" pageHeight="1100" math="0" shadow="0">
      <root>
        <mxCell id="0" />
        <mxCell id="1" parent="0" />
        <mxCell id="w_8HsDneWyBDN1gnofwD-67" value="" style="rounded=1;whiteSpace=wrap;html=1;fillColor=#E6E6E6;strokeColor=none;fontColor=#000000;arcSize=3;" parent="1" vertex="1">
          <mxGeometry x="459.75" y="1150" width="640" height="200" as="geometry" />
        </mxCell>
        <mxCell id="9pO9uT2kOoJnUgxudCDx-62" value="" style="ellipse;whiteSpace=wrap;html=1;aspect=fixed;strokeWidth=2;strokeColor=#000000;fillColor=none;" parent="1" vertex="1">
          <mxGeometry x="1270" y="397.5" width="40" height="40" as="geometry" />
        </mxCell>
        <mxCell id="9pO9uT2kOoJnUgxudCDx-61" value="" style="ellipse;whiteSpace=wrap;html=1;aspect=fixed;strokeWidth=2;strokeColor=#000000;fillColor=none;" parent="1" vertex="1">
          <mxGeometry x="1160" y="397.5" width="40" height="40" as="geometry" />
        </mxCell>
        <mxCell id="9pO9uT2kOoJnUgxudCDx-10" value="" style="ellipse;whiteSpace=wrap;html=1;aspect=fixed;strokeWidth=2;strokeColor=#000000;fillColor=none;" parent="1" vertex="1">
          <mxGeometry x="442.5" y="520" width="50" height="50" as="geometry" />
        </mxCell>
        <mxCell id="9pO9uT2kOoJnUgxudCDx-1" value="" style="ellipse;whiteSpace=wrap;html=1;aspect=fixed;fillColor=#00FF00;strokeColor=#000000;" parent="1" vertex="1">
          <mxGeometry x="407.5" y="450" width="35" height="35" as="geometry" />
        </mxCell>
        <mxCell id="9pO9uT2kOoJnUgxudCDx-2" value="" style="endArrow=none;html=1;rounded=0;exitX=1;exitY=0;exitDx=0;exitDy=0;entryX=0;entryY=0.5;entryDx=0;entryDy=0;endSize=7;strokeWidth=2;strokeColor=#000000;" parent="1" source="9pO9uT2kOoJnUgxudCDx-1" target="9pO9uT2kOoJnUgxudCDx-4" edge="1">
          <mxGeometry width="50" height="50" relative="1" as="geometry">
            <mxPoint x="450" y="530" as="sourcePoint" />
            <mxPoint x="470" y="390" as="targetPoint" />
          </mxGeometry>
        </mxCell>
        <mxCell id="9pO9uT2kOoJnUgxudCDx-3" value="" style="ellipse;whiteSpace=wrap;html=1;aspect=fixed;fillColor=#00FF00;strokeColor=#000000;" parent="1" vertex="1">
          <mxGeometry x="442.5" y="505" width="35" height="35" as="geometry" />
        </mxCell>
        <mxCell id="9pO9uT2kOoJnUgxudCDx-5" value="" style="endArrow=none;html=1;rounded=0;exitX=1;exitY=0;exitDx=0;exitDy=0;entryX=0.5;entryY=1;entryDx=0;entryDy=0;endSize=7;strokeWidth=2;strokeColor=#000000;" parent="1" source="9pO9uT2kOoJnUgxudCDx-3" target="9pO9uT2kOoJnUgxudCDx-4" edge="1">
          <mxGeometry width="50" height="50" relative="1" as="geometry">
            <mxPoint x="424" y="466" as="sourcePoint" />
            <mxPoint x="520" y="420" as="targetPoint" />
          </mxGeometry>
        </mxCell>
        <mxCell id="9pO9uT2kOoJnUgxudCDx-4" value="" style="ellipse;whiteSpace=wrap;html=1;aspect=fixed;fillColor=#00FF00;strokeColor=#000000;" parent="1" vertex="1">
          <mxGeometry x="510" y="400" width="35" height="35" as="geometry" />
        </mxCell>
        <mxCell id="9pO9uT2kOoJnUgxudCDx-12" value="&lt;font face=&quot;Comic Sans MS&quot;&gt;&lt;b&gt;Undirected Graphs&lt;/b&gt;&lt;/font&gt;" style="rounded=1;whiteSpace=wrap;html=1;fillColor=#FFFF00;strokeColor=#000000;fontColor=#000000;" parent="1" vertex="1">
          <mxGeometry x="420" y="360" width="130" height="20" as="geometry" />
        </mxCell>
        <mxCell id="9pO9uT2kOoJnUgxudCDx-13" value="&lt;font face=&quot;Comic Sans MS&quot;&gt;&lt;b&gt;Self-Edge&lt;/b&gt;&lt;/font&gt;" style="rounded=1;whiteSpace=wrap;html=1;fillColor=#66FFFF;strokeColor=#000000;fontColor=#000000;" parent="1" vertex="1">
          <mxGeometry x="500" y="535" width="80" height="20" as="geometry" />
        </mxCell>
        <mxCell id="9pO9uT2kOoJnUgxudCDx-15" value="" style="ellipse;whiteSpace=wrap;html=1;aspect=fixed;fillColor=#00FF00;strokeColor=#000000;" parent="1" vertex="1">
          <mxGeometry x="600" y="460" width="35" height="35" as="geometry" />
        </mxCell>
        <mxCell id="9pO9uT2kOoJnUgxudCDx-16" value="" style="endArrow=none;html=1;rounded=0;endSize=7;strokeWidth=2;strokeColor=#000000;startArrow=classicThin;startFill=1;" parent="1" edge="1">
          <mxGeometry width="50" height="50" relative="1" as="geometry">
            <mxPoint x="636" y="462" as="sourcePoint" />
            <mxPoint x="727" y="419" as="targetPoint" />
          </mxGeometry>
        </mxCell>
        <mxCell id="9pO9uT2kOoJnUgxudCDx-17" value="" style="ellipse;whiteSpace=wrap;html=1;aspect=fixed;fillColor=#00FF00;strokeColor=#000000;" parent="1" vertex="1">
          <mxGeometry x="670" y="520" width="35" height="35" as="geometry" />
        </mxCell>
        <mxCell id="9pO9uT2kOoJnUgxudCDx-18" value="" style="endArrow=none;html=1;rounded=0;entryX=0.5;entryY=1;entryDx=0;entryDy=0;endSize=7;strokeWidth=2;strokeColor=#000000;startArrow=classicThin;startFill=1;" parent="1" edge="1">
          <mxGeometry width="50" height="50" relative="1" as="geometry">
            <mxPoint x="703" y="526" as="sourcePoint" />
            <mxPoint x="749" y="442" as="targetPoint" />
          </mxGeometry>
        </mxCell>
        <mxCell id="9pO9uT2kOoJnUgxudCDx-19" value="" style="ellipse;whiteSpace=wrap;html=1;aspect=fixed;fillColor=#00FF00;strokeColor=#000000;" parent="1" vertex="1">
          <mxGeometry x="730" y="400" width="35" height="35" as="geometry" />
        </mxCell>
        <mxCell id="9pO9uT2kOoJnUgxudCDx-20" value="&lt;font face=&quot;Comic Sans MS&quot;&gt;&lt;b&gt;Directed Graph&lt;/b&gt;&lt;/font&gt;" style="rounded=1;whiteSpace=wrap;html=1;fillColor=#FFFF00;strokeColor=#000000;fontColor=#000000;" parent="1" vertex="1">
          <mxGeometry x="625" y="360" width="130" height="20" as="geometry" />
        </mxCell>
        <mxCell id="9pO9uT2kOoJnUgxudCDx-22" value="" style="endArrow=none;html=1;rounded=0;endSize=7;strokeWidth=2;strokeColor=#000000;startArrow=classicThin;startFill=1;" parent="1" edge="1">
          <mxGeometry width="50" height="50" relative="1" as="geometry">
            <mxPoint x="730" y="430" as="sourcePoint" />
            <mxPoint x="642" y="474" as="targetPoint" />
          </mxGeometry>
        </mxCell>
        <mxCell id="9pO9uT2kOoJnUgxudCDx-23" value="" style="endArrow=none;html=1;rounded=0;endSize=7;strokeWidth=2;strokeColor=#000000;startArrow=classicThin;startFill=1;" parent="1" edge="1">
          <mxGeometry width="50" height="50" relative="1" as="geometry">
            <mxPoint x="739" y="438" as="sourcePoint" />
            <mxPoint x="693" y="517" as="targetPoint" />
          </mxGeometry>
        </mxCell>
        <mxCell id="9pO9uT2kOoJnUgxudCDx-24" value="" style="ellipse;whiteSpace=wrap;html=1;aspect=fixed;fillColor=#FF00FF;strokeColor=#000000;" parent="1" vertex="1">
          <mxGeometry x="810" y="525" width="25" height="25" as="geometry" />
        </mxCell>
        <mxCell id="9pO9uT2kOoJnUgxudCDx-29" value="&lt;font face=&quot;Comic Sans MS&quot;&gt;&lt;b&gt;Connected Graph&lt;/b&gt;&lt;/font&gt;" style="rounded=1;whiteSpace=wrap;html=1;fillColor=#FFFF00;strokeColor=#000000;fontColor=#000000;" parent="1" vertex="1">
          <mxGeometry x="800" y="360" width="150" height="20" as="geometry" />
        </mxCell>
        <mxCell id="9pO9uT2kOoJnUgxudCDx-32" value="" style="ellipse;whiteSpace=wrap;html=1;aspect=fixed;fillColor=#FF00FF;strokeColor=#000000;" parent="1" vertex="1">
          <mxGeometry x="810" y="425" width="25" height="25" as="geometry" />
        </mxCell>
        <mxCell id="9pO9uT2kOoJnUgxudCDx-33" value="" style="ellipse;whiteSpace=wrap;html=1;aspect=fixed;fillColor=#FF00FF;strokeColor=#000000;" parent="1" vertex="1">
          <mxGeometry x="920" y="425" width="25" height="25" as="geometry" />
        </mxCell>
        <mxCell id="9pO9uT2kOoJnUgxudCDx-34" value="" style="ellipse;whiteSpace=wrap;html=1;aspect=fixed;fillColor=#FF00FF;strokeColor=#000000;" parent="1" vertex="1">
          <mxGeometry x="920" y="525" width="25" height="25" as="geometry" />
        </mxCell>
        <mxCell id="9pO9uT2kOoJnUgxudCDx-35" value="&lt;font face=&quot;Comic Sans MS&quot;&gt;&lt;b&gt;Disconnected Graph&lt;/b&gt;&lt;/font&gt;" style="rounded=1;whiteSpace=wrap;html=1;fillColor=#FFFF00;strokeColor=#000000;fontColor=#000000;" parent="1" vertex="1">
          <mxGeometry x="980" y="360" width="150" height="20" as="geometry" />
        </mxCell>
        <mxCell id="9pO9uT2kOoJnUgxudCDx-38" value="" style="ellipse;whiteSpace=wrap;html=1;aspect=fixed;fillColor=#FF00FF;strokeColor=#000000;" parent="1" vertex="1">
          <mxGeometry x="863.5" y="465" width="25" height="25" as="geometry" />
        </mxCell>
        <mxCell id="9pO9uT2kOoJnUgxudCDx-39" value="" style="endArrow=none;html=1;rounded=0;exitX=0.5;exitY=0;exitDx=0;exitDy=0;entryX=0.5;entryY=1;entryDx=0;entryDy=0;endSize=7;strokeWidth=2;strokeColor=#000000;" parent="1" source="9pO9uT2kOoJnUgxudCDx-24" target="9pO9uT2kOoJnUgxudCDx-32" edge="1">
          <mxGeometry width="50" height="50" relative="1" as="geometry">
            <mxPoint x="454" y="526" as="sourcePoint" />
            <mxPoint x="500" y="440" as="targetPoint" />
          </mxGeometry>
        </mxCell>
        <mxCell id="9pO9uT2kOoJnUgxudCDx-40" value="" style="endArrow=none;html=1;rounded=0;exitX=0.5;exitY=0;exitDx=0;exitDy=0;entryX=0.5;entryY=1;entryDx=0;entryDy=0;endSize=7;strokeWidth=2;strokeColor=#000000;" parent="1" edge="1">
          <mxGeometry width="50" height="50" relative="1" as="geometry">
            <mxPoint x="932.26" y="525" as="sourcePoint" />
            <mxPoint x="932.26" y="450" as="targetPoint" />
          </mxGeometry>
        </mxCell>
        <mxCell id="9pO9uT2kOoJnUgxudCDx-42" value="" style="ellipse;whiteSpace=wrap;html=1;aspect=fixed;fillColor=#FF00FF;strokeColor=#000000;" parent="1" vertex="1">
          <mxGeometry x="987.5" y="525" width="25" height="25" as="geometry" />
        </mxCell>
        <mxCell id="9pO9uT2kOoJnUgxudCDx-43" value="" style="ellipse;whiteSpace=wrap;html=1;aspect=fixed;fillColor=#FF00FF;strokeColor=#000000;" parent="1" vertex="1">
          <mxGeometry x="987.5" y="425" width="25" height="25" as="geometry" />
        </mxCell>
        <mxCell id="9pO9uT2kOoJnUgxudCDx-44" value="" style="ellipse;whiteSpace=wrap;html=1;aspect=fixed;fillColor=#FF00FF;strokeColor=#000000;" parent="1" vertex="1">
          <mxGeometry x="1097.5" y="425" width="25" height="25" as="geometry" />
        </mxCell>
        <mxCell id="9pO9uT2kOoJnUgxudCDx-45" value="" style="ellipse;whiteSpace=wrap;html=1;aspect=fixed;fillColor=#FF00FF;strokeColor=#000000;" parent="1" vertex="1">
          <mxGeometry x="1097.5" y="525" width="25" height="25" as="geometry" />
        </mxCell>
        <mxCell id="9pO9uT2kOoJnUgxudCDx-46" value="" style="ellipse;whiteSpace=wrap;html=1;aspect=fixed;fillColor=#FF00FF;strokeColor=#000000;" parent="1" vertex="1">
          <mxGeometry x="1043.5" y="465" width="25" height="25" as="geometry" />
        </mxCell>
        <mxCell id="9pO9uT2kOoJnUgxudCDx-47" value="" style="endArrow=none;html=1;rounded=0;exitX=0.5;exitY=0;exitDx=0;exitDy=0;entryX=0.5;entryY=1;entryDx=0;entryDy=0;endSize=7;strokeWidth=2;strokeColor=#000000;" parent="1" source="9pO9uT2kOoJnUgxudCDx-42" target="9pO9uT2kOoJnUgxudCDx-43" edge="1">
          <mxGeometry width="50" height="50" relative="1" as="geometry">
            <mxPoint x="631.5" y="526" as="sourcePoint" />
            <mxPoint x="677.5" y="440" as="targetPoint" />
          </mxGeometry>
        </mxCell>
        <mxCell id="9pO9uT2kOoJnUgxudCDx-48" value="" style="endArrow=none;html=1;rounded=0;exitX=0.5;exitY=0;exitDx=0;exitDy=0;entryX=0.5;entryY=1;entryDx=0;entryDy=0;endSize=7;strokeWidth=2;strokeColor=#000000;" parent="1" edge="1">
          <mxGeometry width="50" height="50" relative="1" as="geometry">
            <mxPoint x="1109.76" y="525" as="sourcePoint" />
            <mxPoint x="1109.76" y="450" as="targetPoint" />
          </mxGeometry>
        </mxCell>
        <mxCell id="9pO9uT2kOoJnUgxudCDx-49" value="" style="endArrow=none;html=1;rounded=0;exitX=0;exitY=0;exitDx=0;exitDy=0;entryX=1;entryY=1;entryDx=0;entryDy=0;endSize=7;strokeWidth=2;strokeColor=#000000;" parent="1" source="9pO9uT2kOoJnUgxudCDx-46" target="9pO9uT2kOoJnUgxudCDx-43" edge="1">
          <mxGeometry width="50" height="50" relative="1" as="geometry">
            <mxPoint x="1010" y="535" as="sourcePoint" />
            <mxPoint x="1010" y="460" as="targetPoint" />
          </mxGeometry>
        </mxCell>
        <mxCell id="9pO9uT2kOoJnUgxudCDx-50" value="" style="endArrow=none;html=1;rounded=0;exitX=1;exitY=0;exitDx=0;exitDy=0;entryX=0;entryY=1;entryDx=0;entryDy=0;endSize=7;strokeWidth=2;strokeColor=#000000;" parent="1" source="9pO9uT2kOoJnUgxudCDx-46" target="9pO9uT2kOoJnUgxudCDx-44" edge="1">
          <mxGeometry width="50" height="50" relative="1" as="geometry">
            <mxPoint x="1054" y="479" as="sourcePoint" />
            <mxPoint x="1019" y="453" as="targetPoint" />
          </mxGeometry>
        </mxCell>
        <mxCell id="9pO9uT2kOoJnUgxudCDx-51" value="&lt;font face=&quot;Comic Sans MS&quot;&gt;&lt;b&gt;Non-Simple Graph&lt;/b&gt;&lt;/font&gt;" style="rounded=1;whiteSpace=wrap;html=1;fillColor=#FFFF00;strokeColor=#000000;fontColor=#000000;" parent="1" vertex="1">
          <mxGeometry x="1160" y="360" width="150" height="20" as="geometry" />
        </mxCell>
        <mxCell id="9pO9uT2kOoJnUgxudCDx-52" value="" style="ellipse;whiteSpace=wrap;html=1;aspect=fixed;fillColor=#FF00FF;strokeColor=#000000;" parent="1" vertex="1">
          <mxGeometry x="1167.5" y="525" width="25" height="25" as="geometry" />
        </mxCell>
        <mxCell id="9pO9uT2kOoJnUgxudCDx-53" value="" style="ellipse;whiteSpace=wrap;html=1;aspect=fixed;fillColor=#FF00FF;strokeColor=#000000;" parent="1" vertex="1">
          <mxGeometry x="1167.5" y="425" width="25" height="25" as="geometry" />
        </mxCell>
        <mxCell id="9pO9uT2kOoJnUgxudCDx-54" value="" style="ellipse;whiteSpace=wrap;html=1;aspect=fixed;fillColor=#FF00FF;strokeColor=#000000;" parent="1" vertex="1">
          <mxGeometry x="1277.5" y="425" width="25" height="25" as="geometry" />
        </mxCell>
        <mxCell id="9pO9uT2kOoJnUgxudCDx-55" value="" style="ellipse;whiteSpace=wrap;html=1;aspect=fixed;fillColor=#FF00FF;strokeColor=#000000;" parent="1" vertex="1">
          <mxGeometry x="1277.5" y="525" width="25" height="25" as="geometry" />
        </mxCell>
        <mxCell id="9pO9uT2kOoJnUgxudCDx-56" value="" style="ellipse;whiteSpace=wrap;html=1;aspect=fixed;fillColor=#FF00FF;strokeColor=#000000;" parent="1" vertex="1">
          <mxGeometry x="1223.5" y="465" width="25" height="25" as="geometry" />
        </mxCell>
        <mxCell id="9pO9uT2kOoJnUgxudCDx-57" value="" style="endArrow=none;html=1;rounded=0;exitX=0.5;exitY=0;exitDx=0;exitDy=0;entryX=0.5;entryY=1;entryDx=0;entryDy=0;endSize=7;strokeWidth=2;strokeColor=#000000;" parent="1" source="9pO9uT2kOoJnUgxudCDx-52" target="9pO9uT2kOoJnUgxudCDx-53" edge="1">
          <mxGeometry width="50" height="50" relative="1" as="geometry">
            <mxPoint x="811.5" y="526" as="sourcePoint" />
            <mxPoint x="857.5" y="440" as="targetPoint" />
          </mxGeometry>
        </mxCell>
        <mxCell id="9pO9uT2kOoJnUgxudCDx-58" value="" style="endArrow=none;html=1;rounded=0;exitX=0.5;exitY=0;exitDx=0;exitDy=0;entryX=0.5;entryY=1;entryDx=0;entryDy=0;endSize=7;strokeWidth=2;strokeColor=#000000;" parent="1" edge="1">
          <mxGeometry width="50" height="50" relative="1" as="geometry">
            <mxPoint x="1289.76" y="525" as="sourcePoint" />
            <mxPoint x="1289.76" y="450" as="targetPoint" />
          </mxGeometry>
        </mxCell>
        <mxCell id="9pO9uT2kOoJnUgxudCDx-59" value="" style="endArrow=none;html=1;rounded=0;exitX=0;exitY=0;exitDx=0;exitDy=0;entryX=1;entryY=1;entryDx=0;entryDy=0;endSize=7;strokeWidth=2;strokeColor=#000000;" parent="1" source="9pO9uT2kOoJnUgxudCDx-56" target="9pO9uT2kOoJnUgxudCDx-53" edge="1">
          <mxGeometry width="50" height="50" relative="1" as="geometry">
            <mxPoint x="1190" y="535" as="sourcePoint" />
            <mxPoint x="1190" y="460" as="targetPoint" />
          </mxGeometry>
        </mxCell>
        <mxCell id="9pO9uT2kOoJnUgxudCDx-60" value="" style="endArrow=none;html=1;rounded=0;exitX=1;exitY=0;exitDx=0;exitDy=0;entryX=0;entryY=1;entryDx=0;entryDy=0;endSize=7;strokeWidth=2;strokeColor=#000000;" parent="1" source="9pO9uT2kOoJnUgxudCDx-56" target="9pO9uT2kOoJnUgxudCDx-54" edge="1">
          <mxGeometry width="50" height="50" relative="1" as="geometry">
            <mxPoint x="1234" y="479" as="sourcePoint" />
            <mxPoint x="1199" y="453" as="targetPoint" />
          </mxGeometry>
        </mxCell>
        <mxCell id="vU05gBOwP9u5JrT5ZFWY-7" value="&lt;font style=&quot;font-size: 9px;&quot; face=&quot;Comic Sans MS&quot;&gt;&lt;b style=&quot;&quot;&gt;Complete Graph&lt;/b&gt;&lt;/font&gt;" style="rounded=1;whiteSpace=wrap;html=1;fillColor=#FFFF00;strokeColor=#000000;fontColor=#000000;" parent="1" vertex="1">
          <mxGeometry x="610" y="660" width="100" height="18" as="geometry" />
        </mxCell>
        <mxCell id="vU05gBOwP9u5JrT5ZFWY-9" value="&lt;b style=&quot;color: rgb(0, 0, 0); font-family: &amp;quot;Comic Sans MS&amp;quot;;&quot;&gt;1&lt;/b&gt;" style="ellipse;whiteSpace=wrap;html=1;aspect=fixed;fillColor=#00FF00;strokeColor=#000000;" parent="1" vertex="1">
          <mxGeometry x="580" y="700" width="30" height="30" as="geometry" />
        </mxCell>
        <mxCell id="vU05gBOwP9u5JrT5ZFWY-10" value="" style="endArrow=none;html=1;rounded=0;endSize=7;strokeWidth=2;strokeColor=#000000;startArrow=none;startFill=0;entryX=1;entryY=0.5;entryDx=0;entryDy=0;exitX=0;exitY=0.5;exitDx=0;exitDy=0;" parent="1" source="vU05gBOwP9u5JrT5ZFWY-13" target="vU05gBOwP9u5JrT5ZFWY-9" edge="1">
          <mxGeometry width="50" height="50" relative="1" as="geometry">
            <mxPoint x="828.5" y="752" as="sourcePoint" />
            <mxPoint x="919.5" y="709" as="targetPoint" />
          </mxGeometry>
        </mxCell>
        <mxCell id="vU05gBOwP9u5JrT5ZFWY-13" value="&lt;font face=&quot;Comic Sans MS&quot; color=&quot;#000000&quot;&gt;&lt;b&gt;2&lt;/b&gt;&lt;/font&gt;" style="ellipse;whiteSpace=wrap;html=1;aspect=fixed;fillColor=#00FF00;strokeColor=#000000;" parent="1" vertex="1">
          <mxGeometry x="660" y="700" width="30" height="30" as="geometry" />
        </mxCell>
        <mxCell id="vU05gBOwP9u5JrT5ZFWY-17" value="&lt;b style=&quot;color: rgb(0, 0, 0); font-family: &amp;quot;Comic Sans MS&amp;quot;;&quot;&gt;3&lt;/b&gt;" style="ellipse;whiteSpace=wrap;html=1;aspect=fixed;fillColor=#00FF00;strokeColor=#000000;" parent="1" vertex="1">
          <mxGeometry x="580" y="770" width="30" height="30" as="geometry" />
        </mxCell>
        <mxCell id="vU05gBOwP9u5JrT5ZFWY-18" value="" style="endArrow=none;html=1;rounded=0;endSize=7;strokeWidth=2;strokeColor=#000000;startArrow=none;startFill=0;entryX=1;entryY=0.5;entryDx=0;entryDy=0;exitX=0;exitY=0.5;exitDx=0;exitDy=0;" parent="1" source="vU05gBOwP9u5JrT5ZFWY-19" target="vU05gBOwP9u5JrT5ZFWY-17" edge="1">
          <mxGeometry width="50" height="50" relative="1" as="geometry">
            <mxPoint x="828.5" y="822" as="sourcePoint" />
            <mxPoint x="919.5" y="779" as="targetPoint" />
          </mxGeometry>
        </mxCell>
        <mxCell id="vU05gBOwP9u5JrT5ZFWY-19" value="&lt;font face=&quot;Comic Sans MS&quot; color=&quot;#000000&quot;&gt;&lt;b&gt;4&lt;/b&gt;&lt;/font&gt;" style="ellipse;whiteSpace=wrap;html=1;aspect=fixed;fillColor=#00FF00;strokeColor=#000000;" parent="1" vertex="1">
          <mxGeometry x="660" y="770" width="30" height="30" as="geometry" />
        </mxCell>
        <mxCell id="vU05gBOwP9u5JrT5ZFWY-20" value="" style="endArrow=none;html=1;rounded=0;endSize=7;strokeWidth=2;strokeColor=#000000;startArrow=none;startFill=0;entryX=0.5;entryY=1;entryDx=0;entryDy=0;exitX=0.5;exitY=0;exitDx=0;exitDy=0;" parent="1" source="vU05gBOwP9u5JrT5ZFWY-17" target="vU05gBOwP9u5JrT5ZFWY-9" edge="1">
          <mxGeometry width="50" height="50" relative="1" as="geometry">
            <mxPoint x="705" y="795" as="sourcePoint" />
            <mxPoint x="620" y="795" as="targetPoint" />
          </mxGeometry>
        </mxCell>
        <mxCell id="vU05gBOwP9u5JrT5ZFWY-21" value="" style="endArrow=none;html=1;rounded=0;endSize=7;strokeWidth=2;strokeColor=#000000;startArrow=none;startFill=0;entryX=1;entryY=1;entryDx=0;entryDy=0;exitX=0;exitY=0;exitDx=0;exitDy=0;" parent="1" source="vU05gBOwP9u5JrT5ZFWY-19" target="vU05gBOwP9u5JrT5ZFWY-9" edge="1">
          <mxGeometry width="50" height="50" relative="1" as="geometry">
            <mxPoint x="605" y="780" as="sourcePoint" />
            <mxPoint x="605" y="740" as="targetPoint" />
          </mxGeometry>
        </mxCell>
        <mxCell id="vU05gBOwP9u5JrT5ZFWY-22" value="" style="endArrow=none;html=1;rounded=0;endSize=7;strokeWidth=2;strokeColor=#000000;startArrow=none;startFill=0;entryX=1;entryY=0;entryDx=0;entryDy=0;" parent="1" source="vU05gBOwP9u5JrT5ZFWY-13" target="vU05gBOwP9u5JrT5ZFWY-17" edge="1">
          <mxGeometry width="50" height="50" relative="1" as="geometry">
            <mxPoint x="669" y="790" as="sourcePoint" />
            <mxPoint x="616" y="736" as="targetPoint" />
          </mxGeometry>
        </mxCell>
        <mxCell id="vU05gBOwP9u5JrT5ZFWY-23" value="&lt;font face=&quot;Comic Sans MS&quot; color=&quot;#000000&quot;&gt;&lt;b&gt;5&lt;/b&gt;&lt;/font&gt;" style="ellipse;whiteSpace=wrap;html=1;aspect=fixed;fillColor=#00FF00;strokeColor=#000000;" parent="1" vertex="1">
          <mxGeometry x="722.5" y="737" width="30" height="30" as="geometry" />
        </mxCell>
        <mxCell id="vU05gBOwP9u5JrT5ZFWY-25" value="" style="endArrow=none;html=1;rounded=0;endSize=7;strokeWidth=2;strokeColor=#000000;startArrow=none;startFill=0;entryX=0;entryY=0;entryDx=0;entryDy=0;exitX=1;exitY=0.5;exitDx=0;exitDy=0;" parent="1" source="vU05gBOwP9u5JrT5ZFWY-13" target="vU05gBOwP9u5JrT5ZFWY-23" edge="1">
          <mxGeometry width="50" height="50" relative="1" as="geometry">
            <mxPoint x="674" y="735" as="sourcePoint" />
            <mxPoint x="616" y="784" as="targetPoint" />
          </mxGeometry>
        </mxCell>
        <mxCell id="vU05gBOwP9u5JrT5ZFWY-27" value="" style="endArrow=none;html=1;rounded=0;endSize=7;strokeWidth=2;strokeColor=#000000;startArrow=none;startFill=0;entryX=0;entryY=1;entryDx=0;entryDy=0;exitX=1;exitY=0.5;exitDx=0;exitDy=0;" parent="1" source="vU05gBOwP9u5JrT5ZFWY-19" target="vU05gBOwP9u5JrT5ZFWY-23" edge="1">
          <mxGeometry width="50" height="50" relative="1" as="geometry">
            <mxPoint x="696" y="736" as="sourcePoint" />
            <mxPoint x="737" y="751" as="targetPoint" />
          </mxGeometry>
        </mxCell>
        <mxCell id="vU05gBOwP9u5JrT5ZFWY-28" value="" style="endArrow=none;html=1;rounded=0;endSize=7;strokeWidth=2;strokeColor=#000000;startArrow=none;startFill=0;entryX=0;entryY=0.5;entryDx=0;entryDy=0;exitX=1;exitY=1;exitDx=0;exitDy=0;" parent="1" source="vU05gBOwP9u5JrT5ZFWY-9" target="vU05gBOwP9u5JrT5ZFWY-23" edge="1">
          <mxGeometry width="50" height="50" relative="1" as="geometry">
            <mxPoint x="700" y="725" as="sourcePoint" />
            <mxPoint x="737" y="751" as="targetPoint" />
          </mxGeometry>
        </mxCell>
        <mxCell id="vU05gBOwP9u5JrT5ZFWY-29" value="" style="endArrow=none;html=1;rounded=0;endSize=7;strokeWidth=2;strokeColor=#000000;startArrow=none;startFill=0;entryX=0;entryY=0.5;entryDx=0;entryDy=0;exitX=1;exitY=0;exitDx=0;exitDy=0;" parent="1" source="vU05gBOwP9u5JrT5ZFWY-17" target="vU05gBOwP9u5JrT5ZFWY-23" edge="1">
          <mxGeometry width="50" height="50" relative="1" as="geometry">
            <mxPoint x="616" y="736" as="sourcePoint" />
            <mxPoint x="733" y="762" as="targetPoint" />
          </mxGeometry>
        </mxCell>
        <mxCell id="vU05gBOwP9u5JrT5ZFWY-30" value="&lt;font style=&quot;font-size: 9px;&quot; face=&quot;Comic Sans MS&quot;&gt;&lt;b style=&quot;&quot;&gt;Dense Graph&lt;/b&gt;&lt;/font&gt;" style="rounded=1;whiteSpace=wrap;html=1;fillColor=#FFFF00;strokeColor=#000000;fontColor=#000000;" parent="1" vertex="1">
          <mxGeometry x="820" y="660" width="100" height="18" as="geometry" />
        </mxCell>
        <mxCell id="vU05gBOwP9u5JrT5ZFWY-31" value="&lt;b style=&quot;color: rgb(0, 0, 0); font-family: &amp;quot;Comic Sans MS&amp;quot;;&quot;&gt;1&lt;/b&gt;" style="ellipse;whiteSpace=wrap;html=1;aspect=fixed;fillColor=#00FF00;strokeColor=#000000;" parent="1" vertex="1">
          <mxGeometry x="789.75" y="700" width="30" height="30" as="geometry" />
        </mxCell>
        <mxCell id="vU05gBOwP9u5JrT5ZFWY-32" value="" style="endArrow=none;html=1;rounded=0;endSize=7;strokeWidth=2;strokeColor=#000000;startArrow=none;startFill=0;entryX=1;entryY=0.5;entryDx=0;entryDy=0;exitX=0;exitY=0.5;exitDx=0;exitDy=0;" parent="1" source="vU05gBOwP9u5JrT5ZFWY-33" target="vU05gBOwP9u5JrT5ZFWY-31" edge="1">
          <mxGeometry width="50" height="50" relative="1" as="geometry">
            <mxPoint x="1038.25" y="752" as="sourcePoint" />
            <mxPoint x="1129.25" y="709" as="targetPoint" />
          </mxGeometry>
        </mxCell>
        <mxCell id="vU05gBOwP9u5JrT5ZFWY-33" value="&lt;font face=&quot;Comic Sans MS&quot; color=&quot;#000000&quot;&gt;&lt;b&gt;2&lt;/b&gt;&lt;/font&gt;" style="ellipse;whiteSpace=wrap;html=1;aspect=fixed;fillColor=#00FF00;strokeColor=#000000;" parent="1" vertex="1">
          <mxGeometry x="869.75" y="700" width="30" height="30" as="geometry" />
        </mxCell>
        <mxCell id="vU05gBOwP9u5JrT5ZFWY-34" value="&lt;b style=&quot;color: rgb(0, 0, 0); font-family: &amp;quot;Comic Sans MS&amp;quot;;&quot;&gt;3&lt;/b&gt;" style="ellipse;whiteSpace=wrap;html=1;aspect=fixed;fillColor=#00FF00;strokeColor=#000000;" parent="1" vertex="1">
          <mxGeometry x="789.75" y="770" width="30" height="30" as="geometry" />
        </mxCell>
        <mxCell id="vU05gBOwP9u5JrT5ZFWY-35" value="" style="endArrow=none;html=1;rounded=0;endSize=7;strokeWidth=2;strokeColor=#000000;startArrow=none;startFill=0;entryX=1;entryY=0.5;entryDx=0;entryDy=0;exitX=0;exitY=0.5;exitDx=0;exitDy=0;" parent="1" source="vU05gBOwP9u5JrT5ZFWY-36" target="vU05gBOwP9u5JrT5ZFWY-34" edge="1">
          <mxGeometry width="50" height="50" relative="1" as="geometry">
            <mxPoint x="1038.25" y="822" as="sourcePoint" />
            <mxPoint x="1129.25" y="779" as="targetPoint" />
          </mxGeometry>
        </mxCell>
        <mxCell id="vU05gBOwP9u5JrT5ZFWY-36" value="&lt;font face=&quot;Comic Sans MS&quot; color=&quot;#000000&quot;&gt;&lt;b&gt;4&lt;/b&gt;&lt;/font&gt;" style="ellipse;whiteSpace=wrap;html=1;aspect=fixed;fillColor=#00FF00;strokeColor=#000000;" parent="1" vertex="1">
          <mxGeometry x="869.75" y="770" width="30" height="30" as="geometry" />
        </mxCell>
        <mxCell id="vU05gBOwP9u5JrT5ZFWY-38" value="" style="endArrow=none;html=1;rounded=0;endSize=7;strokeWidth=2;strokeColor=#000000;startArrow=none;startFill=0;entryX=1;entryY=1;entryDx=0;entryDy=0;exitX=0;exitY=0;exitDx=0;exitDy=0;" parent="1" source="vU05gBOwP9u5JrT5ZFWY-36" target="vU05gBOwP9u5JrT5ZFWY-31" edge="1">
          <mxGeometry width="50" height="50" relative="1" as="geometry">
            <mxPoint x="814.75" y="780" as="sourcePoint" />
            <mxPoint x="814.75" y="740" as="targetPoint" />
          </mxGeometry>
        </mxCell>
        <mxCell id="vU05gBOwP9u5JrT5ZFWY-39" value="" style="endArrow=none;html=1;rounded=0;endSize=7;strokeWidth=2;strokeColor=#000000;startArrow=none;startFill=0;entryX=1;entryY=0;entryDx=0;entryDy=0;" parent="1" source="vU05gBOwP9u5JrT5ZFWY-33" target="vU05gBOwP9u5JrT5ZFWY-34" edge="1">
          <mxGeometry width="50" height="50" relative="1" as="geometry">
            <mxPoint x="878.75" y="790" as="sourcePoint" />
            <mxPoint x="825.75" y="736" as="targetPoint" />
          </mxGeometry>
        </mxCell>
        <mxCell id="vU05gBOwP9u5JrT5ZFWY-40" value="&lt;font face=&quot;Comic Sans MS&quot; color=&quot;#000000&quot;&gt;&lt;b&gt;5&lt;/b&gt;&lt;/font&gt;" style="ellipse;whiteSpace=wrap;html=1;aspect=fixed;fillColor=#00FF00;strokeColor=#000000;" parent="1" vertex="1">
          <mxGeometry x="932.25" y="737" width="30" height="30" as="geometry" />
        </mxCell>
        <mxCell id="vU05gBOwP9u5JrT5ZFWY-41" value="" style="endArrow=none;html=1;rounded=0;endSize=7;strokeWidth=2;strokeColor=#000000;startArrow=none;startFill=0;entryX=0;entryY=0;entryDx=0;entryDy=0;exitX=1;exitY=0.5;exitDx=0;exitDy=0;" parent="1" source="vU05gBOwP9u5JrT5ZFWY-33" target="vU05gBOwP9u5JrT5ZFWY-40" edge="1">
          <mxGeometry width="50" height="50" relative="1" as="geometry">
            <mxPoint x="883.75" y="735" as="sourcePoint" />
            <mxPoint x="825.75" y="784" as="targetPoint" />
          </mxGeometry>
        </mxCell>
        <mxCell id="vU05gBOwP9u5JrT5ZFWY-42" value="" style="endArrow=none;html=1;rounded=0;endSize=7;strokeWidth=2;strokeColor=#000000;startArrow=none;startFill=0;entryX=0;entryY=1;entryDx=0;entryDy=0;exitX=1;exitY=0.5;exitDx=0;exitDy=0;" parent="1" source="vU05gBOwP9u5JrT5ZFWY-36" target="vU05gBOwP9u5JrT5ZFWY-40" edge="1">
          <mxGeometry width="50" height="50" relative="1" as="geometry">
            <mxPoint x="905.75" y="736" as="sourcePoint" />
            <mxPoint x="946.75" y="751" as="targetPoint" />
          </mxGeometry>
        </mxCell>
        <mxCell id="vU05gBOwP9u5JrT5ZFWY-44" value="" style="endArrow=none;html=1;rounded=0;endSize=7;strokeWidth=2;strokeColor=#000000;startArrow=none;startFill=0;entryX=0;entryY=0.5;entryDx=0;entryDy=0;exitX=1;exitY=0;exitDx=0;exitDy=0;" parent="1" source="vU05gBOwP9u5JrT5ZFWY-34" target="vU05gBOwP9u5JrT5ZFWY-40" edge="1">
          <mxGeometry width="50" height="50" relative="1" as="geometry">
            <mxPoint x="825.75" y="736" as="sourcePoint" />
            <mxPoint x="942.75" y="762" as="targetPoint" />
          </mxGeometry>
        </mxCell>
        <mxCell id="vU05gBOwP9u5JrT5ZFWY-45" value="&lt;font style=&quot;font-size: 9px;&quot; face=&quot;Comic Sans MS&quot;&gt;&lt;b style=&quot;&quot;&gt;Sparse Graph&lt;/b&gt;&lt;/font&gt;" style="rounded=1;whiteSpace=wrap;html=1;fillColor=#FFFF00;strokeColor=#000000;fontColor=#000000;" parent="1" vertex="1">
          <mxGeometry x="1030" y="660" width="100" height="18" as="geometry" />
        </mxCell>
        <mxCell id="vU05gBOwP9u5JrT5ZFWY-46" value="&lt;b style=&quot;color: rgb(0, 0, 0); font-family: &amp;quot;Comic Sans MS&amp;quot;;&quot;&gt;1&lt;/b&gt;" style="ellipse;whiteSpace=wrap;html=1;aspect=fixed;fillColor=#00FF00;strokeColor=#000000;" parent="1" vertex="1">
          <mxGeometry x="1000" y="700" width="30" height="30" as="geometry" />
        </mxCell>
        <mxCell id="vU05gBOwP9u5JrT5ZFWY-47" value="" style="endArrow=none;html=1;rounded=0;endSize=7;strokeWidth=2;strokeColor=#000000;startArrow=none;startFill=0;entryX=1;entryY=0.5;entryDx=0;entryDy=0;exitX=0;exitY=0.5;exitDx=0;exitDy=0;" parent="1" source="vU05gBOwP9u5JrT5ZFWY-48" target="vU05gBOwP9u5JrT5ZFWY-46" edge="1">
          <mxGeometry width="50" height="50" relative="1" as="geometry">
            <mxPoint x="1248.5" y="752" as="sourcePoint" />
            <mxPoint x="1339.5" y="709" as="targetPoint" />
          </mxGeometry>
        </mxCell>
        <mxCell id="vU05gBOwP9u5JrT5ZFWY-48" value="&lt;font face=&quot;Comic Sans MS&quot; color=&quot;#000000&quot;&gt;&lt;b&gt;2&lt;/b&gt;&lt;/font&gt;" style="ellipse;whiteSpace=wrap;html=1;aspect=fixed;fillColor=#00FF00;strokeColor=#000000;" parent="1" vertex="1">
          <mxGeometry x="1080" y="700" width="30" height="30" as="geometry" />
        </mxCell>
        <mxCell id="vU05gBOwP9u5JrT5ZFWY-49" value="&lt;b style=&quot;color: rgb(0, 0, 0); font-family: &amp;quot;Comic Sans MS&amp;quot;;&quot;&gt;3&lt;/b&gt;" style="ellipse;whiteSpace=wrap;html=1;aspect=fixed;fillColor=#00FF00;strokeColor=#000000;" parent="1" vertex="1">
          <mxGeometry x="1000" y="770" width="30" height="30" as="geometry" />
        </mxCell>
        <mxCell id="vU05gBOwP9u5JrT5ZFWY-50" value="" style="endArrow=none;html=1;rounded=0;endSize=7;strokeWidth=2;strokeColor=#000000;startArrow=none;startFill=0;entryX=1;entryY=0.5;entryDx=0;entryDy=0;exitX=0;exitY=0.5;exitDx=0;exitDy=0;" parent="1" source="vU05gBOwP9u5JrT5ZFWY-51" target="vU05gBOwP9u5JrT5ZFWY-49" edge="1">
          <mxGeometry width="50" height="50" relative="1" as="geometry">
            <mxPoint x="1248.5" y="822" as="sourcePoint" />
            <mxPoint x="1339.5" y="779" as="targetPoint" />
          </mxGeometry>
        </mxCell>
        <mxCell id="vU05gBOwP9u5JrT5ZFWY-51" value="&lt;font face=&quot;Comic Sans MS&quot; color=&quot;#000000&quot;&gt;&lt;b&gt;4&lt;/b&gt;&lt;/font&gt;" style="ellipse;whiteSpace=wrap;html=1;aspect=fixed;fillColor=#00FF00;strokeColor=#000000;" parent="1" vertex="1">
          <mxGeometry x="1080" y="770" width="30" height="30" as="geometry" />
        </mxCell>
        <mxCell id="vU05gBOwP9u5JrT5ZFWY-52" value="" style="endArrow=none;html=1;rounded=0;endSize=7;strokeWidth=2;strokeColor=#000000;startArrow=none;startFill=0;entryX=1;entryY=1;entryDx=0;entryDy=0;exitX=0;exitY=0;exitDx=0;exitDy=0;" parent="1" source="vU05gBOwP9u5JrT5ZFWY-51" target="vU05gBOwP9u5JrT5ZFWY-46" edge="1">
          <mxGeometry width="50" height="50" relative="1" as="geometry">
            <mxPoint x="1025" y="780" as="sourcePoint" />
            <mxPoint x="1025" y="740" as="targetPoint" />
          </mxGeometry>
        </mxCell>
        <mxCell id="vU05gBOwP9u5JrT5ZFWY-54" value="&lt;font face=&quot;Comic Sans MS&quot; color=&quot;#000000&quot;&gt;&lt;b&gt;5&lt;/b&gt;&lt;/font&gt;" style="ellipse;whiteSpace=wrap;html=1;aspect=fixed;fillColor=#00FF00;strokeColor=#000000;" parent="1" vertex="1">
          <mxGeometry x="1142.5" y="737" width="30" height="30" as="geometry" />
        </mxCell>
        <mxCell id="vU05gBOwP9u5JrT5ZFWY-55" value="" style="endArrow=none;html=1;rounded=0;endSize=7;strokeWidth=2;strokeColor=#000000;startArrow=none;startFill=0;entryX=0;entryY=0;entryDx=0;entryDy=0;exitX=1;exitY=0.5;exitDx=0;exitDy=0;" parent="1" source="vU05gBOwP9u5JrT5ZFWY-48" target="vU05gBOwP9u5JrT5ZFWY-54" edge="1">
          <mxGeometry width="50" height="50" relative="1" as="geometry">
            <mxPoint x="1094" y="735" as="sourcePoint" />
            <mxPoint x="1036" y="784" as="targetPoint" />
          </mxGeometry>
        </mxCell>
        <mxCell id="vU05gBOwP9u5JrT5ZFWY-58" value="" style="endArrow=none;html=1;rounded=0;endSize=7;strokeWidth=2;strokeColor=#000000;startArrow=none;startFill=0;entryX=0.5;entryY=1;entryDx=0;entryDy=0;exitX=0.5;exitY=0;exitDx=0;exitDy=0;" parent="1" source="vU05gBOwP9u5JrT5ZFWY-19" target="vU05gBOwP9u5JrT5ZFWY-13" edge="1">
          <mxGeometry width="50" height="50" relative="1" as="geometry">
            <mxPoint x="605" y="780" as="sourcePoint" />
            <mxPoint x="605" y="740" as="targetPoint" />
          </mxGeometry>
        </mxCell>
        <mxCell id="vU05gBOwP9u5JrT5ZFWY-59" value="" style="endArrow=none;html=1;rounded=0;endSize=7;strokeWidth=2;strokeColor=#000000;startArrow=none;startFill=0;entryX=0.5;entryY=1;entryDx=0;entryDy=0;exitX=0.5;exitY=0;exitDx=0;exitDy=0;" parent="1" edge="1">
          <mxGeometry width="50" height="50" relative="1" as="geometry">
            <mxPoint x="884.55" y="770" as="sourcePoint" />
            <mxPoint x="884.55" y="730" as="targetPoint" />
          </mxGeometry>
        </mxCell>
        <mxCell id="vU05gBOwP9u5JrT5ZFWY-60" value="" style="endArrow=none;html=1;rounded=0;endSize=7;strokeWidth=2;strokeColor=#000000;startArrow=none;startFill=0;entryX=0.5;entryY=1;entryDx=0;entryDy=0;exitX=0.5;exitY=0;exitDx=0;exitDy=0;" parent="1" edge="1">
          <mxGeometry width="50" height="50" relative="1" as="geometry">
            <mxPoint x="1094.8" y="770" as="sourcePoint" />
            <mxPoint x="1094.8" y="730" as="targetPoint" />
          </mxGeometry>
        </mxCell>
        <mxCell id="2qasPP3fPQsoUJOk98KG-2" value="&lt;b style=&quot;color: rgb(0, 0, 0); font-family: &amp;quot;Comic Sans MS&amp;quot;;&quot;&gt;1&lt;/b&gt;" style="ellipse;whiteSpace=wrap;html=1;aspect=fixed;fillColor=#00FF00;strokeColor=#000000;" parent="1" vertex="1">
          <mxGeometry x="684.75" y="980" width="30" height="30" as="geometry" />
        </mxCell>
        <mxCell id="2qasPP3fPQsoUJOk98KG-4" value="&lt;font face=&quot;Comic Sans MS&quot; color=&quot;#000000&quot;&gt;&lt;b&gt;2&lt;/b&gt;&lt;/font&gt;" style="ellipse;whiteSpace=wrap;html=1;aspect=fixed;fillColor=#00FF00;strokeColor=#000000;" parent="1" vertex="1">
          <mxGeometry x="754.75" y="928" width="30" height="30" as="geometry" />
        </mxCell>
        <mxCell id="2qasPP3fPQsoUJOk98KG-5" value="&lt;b style=&quot;color: rgb(0, 0, 0); font-family: &amp;quot;Comic Sans MS&amp;quot;;&quot;&gt;4&lt;/b&gt;" style="ellipse;whiteSpace=wrap;html=1;aspect=fixed;fillColor=#00FF00;strokeColor=#000000;" parent="1" vertex="1">
          <mxGeometry x="714.75" y="1050" width="30" height="30" as="geometry" />
        </mxCell>
        <mxCell id="2qasPP3fPQsoUJOk98KG-7" value="&lt;font face=&quot;Comic Sans MS&quot; color=&quot;#000000&quot;&gt;&lt;b&gt;5&lt;/b&gt;&lt;/font&gt;" style="ellipse;whiteSpace=wrap;html=1;aspect=fixed;fillColor=#00FF00;strokeColor=#000000;" parent="1" vertex="1">
          <mxGeometry x="794.75" y="1050" width="30" height="30" as="geometry" />
        </mxCell>
        <mxCell id="2qasPP3fPQsoUJOk98KG-8" value="" style="endArrow=none;html=1;rounded=0;endSize=7;strokeWidth=2;strokeColor=#000000;startArrow=none;startFill=0;entryX=0.5;entryY=1;entryDx=0;entryDy=0;exitX=0;exitY=0;exitDx=0;exitDy=0;" parent="1" source="2qasPP3fPQsoUJOk98KG-5" target="2qasPP3fPQsoUJOk98KG-2" edge="1">
          <mxGeometry width="50" height="50" relative="1" as="geometry">
            <mxPoint x="816" y="1075" as="sourcePoint" />
            <mxPoint x="731" y="1075" as="targetPoint" />
          </mxGeometry>
        </mxCell>
        <mxCell id="2qasPP3fPQsoUJOk98KG-29" value="&lt;font color=&quot;#000000&quot; face=&quot;Comic Sans MS&quot;&gt;&lt;span style=&quot;font-size: 12px; text-wrap: wrap;&quot;&gt;&lt;b&gt;4&lt;/b&gt;&lt;/span&gt;&lt;/font&gt;" style="edgeLabel;html=1;align=center;verticalAlign=middle;resizable=0;points=[];labelBackgroundColor=none;" parent="2qasPP3fPQsoUJOk98KG-8" vertex="1" connectable="0">
          <mxGeometry x="0.021" y="-1" relative="1" as="geometry">
            <mxPoint x="-14" y="-2" as="offset" />
          </mxGeometry>
        </mxCell>
        <mxCell id="2qasPP3fPQsoUJOk98KG-11" value="&lt;font face=&quot;Comic Sans MS&quot; color=&quot;#000000&quot;&gt;&lt;b&gt;3&lt;/b&gt;&lt;/font&gt;" style="ellipse;whiteSpace=wrap;html=1;aspect=fixed;fillColor=#00FF00;strokeColor=#000000;" parent="1" vertex="1">
          <mxGeometry x="824.75" y="980" width="30" height="30" as="geometry" />
        </mxCell>
        <mxCell id="2qasPP3fPQsoUJOk98KG-17" value="" style="endArrow=none;html=1;rounded=0;endSize=7;strokeWidth=2;strokeColor=#000000;startArrow=none;startFill=0;entryX=1;entryY=0.5;entryDx=0;entryDy=0;exitX=0;exitY=0.5;exitDx=0;exitDy=0;" parent="1" source="2qasPP3fPQsoUJOk98KG-7" target="2qasPP3fPQsoUJOk98KG-5" edge="1">
          <mxGeometry width="50" height="50" relative="1" as="geometry">
            <mxPoint x="729" y="1064" as="sourcePoint" />
            <mxPoint x="710" y="1020" as="targetPoint" />
          </mxGeometry>
        </mxCell>
        <mxCell id="2qasPP3fPQsoUJOk98KG-28" value="&lt;font color=&quot;#000000&quot; face=&quot;Comic Sans MS&quot;&gt;&lt;span style=&quot;font-size: 12px; text-wrap: wrap;&quot;&gt;&lt;b&gt;8&lt;/b&gt;&lt;/span&gt;&lt;/font&gt;" style="edgeLabel;html=1;align=center;verticalAlign=middle;resizable=0;points=[];labelBackgroundColor=none;" parent="2qasPP3fPQsoUJOk98KG-17" vertex="1" connectable="0">
          <mxGeometry x="0.0449" y="2" relative="1" as="geometry">
            <mxPoint y="-14" as="offset" />
          </mxGeometry>
        </mxCell>
        <mxCell id="2qasPP3fPQsoUJOk98KG-18" value="" style="endArrow=none;html=1;rounded=0;endSize=7;strokeWidth=2;strokeColor=#000000;startArrow=none;startFill=0;entryX=1;entryY=0;entryDx=0;entryDy=0;exitX=0.5;exitY=1;exitDx=0;exitDy=0;" parent="1" source="2qasPP3fPQsoUJOk98KG-11" target="2qasPP3fPQsoUJOk98KG-7" edge="1">
          <mxGeometry width="50" height="50" relative="1" as="geometry">
            <mxPoint x="805" y="1075" as="sourcePoint" />
            <mxPoint x="755" y="1075" as="targetPoint" />
          </mxGeometry>
        </mxCell>
        <mxCell id="2qasPP3fPQsoUJOk98KG-27" value="&lt;b style=&quot;text-wrap: wrap; color: rgb(0, 0, 0); font-family: &amp;quot;Comic Sans MS&amp;quot;; font-size: 12px;&quot;&gt;3&lt;/b&gt;" style="edgeLabel;html=1;align=center;verticalAlign=middle;resizable=0;points=[];labelBackgroundColor=none;" parent="2qasPP3fPQsoUJOk98KG-18" vertex="1" connectable="0">
          <mxGeometry x="-0.1515" y="1" relative="1" as="geometry">
            <mxPoint x="11" y="1" as="offset" />
          </mxGeometry>
        </mxCell>
        <mxCell id="2qasPP3fPQsoUJOk98KG-19" value="" style="endArrow=none;html=1;rounded=0;endSize=7;strokeWidth=2;strokeColor=#000000;startArrow=none;startFill=0;entryX=0;entryY=0;entryDx=0;entryDy=0;exitX=1;exitY=1;exitDx=0;exitDy=0;" parent="1" source="2qasPP3fPQsoUJOk98KG-4" target="2qasPP3fPQsoUJOk98KG-11" edge="1">
          <mxGeometry width="50" height="50" relative="1" as="geometry">
            <mxPoint x="780" y="950" as="sourcePoint" />
            <mxPoint x="830" y="1064" as="targetPoint" />
          </mxGeometry>
        </mxCell>
        <mxCell id="2qasPP3fPQsoUJOk98KG-24" value="&lt;font color=&quot;#000000&quot; face=&quot;Comic Sans MS&quot;&gt;&lt;span style=&quot;font-size: 12px; text-wrap: wrap;&quot;&gt;&lt;b&gt;5&lt;/b&gt;&lt;/span&gt;&lt;/font&gt;" style="edgeLabel;html=1;align=center;verticalAlign=middle;resizable=0;points=[];labelBackgroundColor=none;" parent="2qasPP3fPQsoUJOk98KG-19" vertex="1" connectable="0">
          <mxGeometry x="0.0942" y="1" relative="1" as="geometry">
            <mxPoint x="2" y="-12" as="offset" />
          </mxGeometry>
        </mxCell>
        <mxCell id="2qasPP3fPQsoUJOk98KG-20" value="" style="endArrow=none;html=1;rounded=0;endSize=7;strokeWidth=2;strokeColor=#000000;startArrow=none;startFill=0;entryX=0;entryY=1;entryDx=0;entryDy=0;exitX=1;exitY=0;exitDx=0;exitDy=0;" parent="1" source="2qasPP3fPQsoUJOk98KG-2" target="2qasPP3fPQsoUJOk98KG-4" edge="1">
          <mxGeometry width="50" height="50" relative="1" as="geometry">
            <mxPoint x="790" y="960" as="sourcePoint" />
            <mxPoint x="839" y="994" as="targetPoint" />
          </mxGeometry>
        </mxCell>
        <mxCell id="2qasPP3fPQsoUJOk98KG-23" value="&lt;b style=&quot;color: rgb(0, 0, 0); font-family: &amp;quot;Comic Sans MS&amp;quot;; font-size: 12px; text-wrap: wrap;&quot;&gt;2&lt;/b&gt;" style="edgeLabel;html=1;align=center;verticalAlign=middle;resizable=0;points=[];labelBackgroundColor=none;" parent="2qasPP3fPQsoUJOk98KG-20" vertex="1" connectable="0">
          <mxGeometry x="0.0449" relative="1" as="geometry">
            <mxPoint x="-6" y="-10" as="offset" />
          </mxGeometry>
        </mxCell>
        <mxCell id="2qasPP3fPQsoUJOk98KG-21" value="" style="endArrow=none;html=1;rounded=0;endSize=7;strokeWidth=2;strokeColor=#000000;startArrow=none;startFill=0;entryX=0;entryY=0.5;entryDx=0;entryDy=0;exitX=1;exitY=0.5;exitDx=0;exitDy=0;" parent="1" source="2qasPP3fPQsoUJOk98KG-2" target="2qasPP3fPQsoUJOk98KG-11" edge="1">
          <mxGeometry width="50" height="50" relative="1" as="geometry">
            <mxPoint x="720" y="994" as="sourcePoint" />
            <mxPoint x="769" y="964" as="targetPoint" />
          </mxGeometry>
        </mxCell>
        <mxCell id="2qasPP3fPQsoUJOk98KG-25" value="&lt;font color=&quot;#000000&quot; face=&quot;Comic Sans MS&quot;&gt;&lt;span style=&quot;font-size: 12px; text-wrap: wrap;&quot;&gt;&lt;b&gt;7&lt;/b&gt;&lt;/span&gt;&lt;/font&gt;" style="edgeLabel;html=1;align=center;verticalAlign=middle;resizable=0;points=[];labelBackgroundColor=none;" parent="2qasPP3fPQsoUJOk98KG-21" vertex="1" connectable="0">
          <mxGeometry x="-0.1811" y="-1" relative="1" as="geometry">
            <mxPoint x="-5" y="-10" as="offset" />
          </mxGeometry>
        </mxCell>
        <mxCell id="2qasPP3fPQsoUJOk98KG-22" value="" style="endArrow=none;html=1;rounded=0;endSize=7;strokeWidth=2;strokeColor=#000000;startArrow=none;startFill=0;entryX=0.5;entryY=0;entryDx=0;entryDy=0;exitX=0.5;exitY=1;exitDx=0;exitDy=0;" parent="1" source="2qasPP3fPQsoUJOk98KG-4" target="2qasPP3fPQsoUJOk98KG-7" edge="1">
          <mxGeometry width="50" height="50" relative="1" as="geometry">
            <mxPoint x="725" y="1005" as="sourcePoint" />
            <mxPoint x="835" y="1005" as="targetPoint" />
          </mxGeometry>
        </mxCell>
        <mxCell id="2qasPP3fPQsoUJOk98KG-26" value="&lt;font color=&quot;#000000&quot; face=&quot;Comic Sans MS&quot;&gt;&lt;span style=&quot;font-size: 12px; text-wrap: wrap;&quot;&gt;&lt;b&gt;6&lt;/b&gt;&lt;/span&gt;&lt;/font&gt;" style="edgeLabel;html=1;align=center;verticalAlign=middle;resizable=0;points=[];labelBackgroundColor=none;" parent="2qasPP3fPQsoUJOk98KG-22" vertex="1" connectable="0">
          <mxGeometry x="0.1899" y="1" relative="1" as="geometry">
            <mxPoint x="10" y="4" as="offset" />
          </mxGeometry>
        </mxCell>
        <mxCell id="2qasPP3fPQsoUJOk98KG-30" value="&lt;font face=&quot;Comic Sans MS&quot;&gt;&lt;b&gt;1&lt;/b&gt;&lt;/font&gt;" style="rounded=1;whiteSpace=wrap;html=1;fillColor=#00FFFF;strokeColor=#000000;fontColor=#000000;fontSize=11;" parent="1" vertex="1">
          <mxGeometry x="888.5" y="936" width="31.5" height="20" as="geometry" />
        </mxCell>
        <mxCell id="2qasPP3fPQsoUJOk98KG-33" value="&lt;font face=&quot;Comic Sans MS&quot;&gt;&lt;b&gt;2(2)&lt;/b&gt;&lt;/font&gt;" style="rounded=1;whiteSpace=wrap;html=1;fillColor=#99FFFF;strokeColor=#000000;fontColor=#000000;fontSize=11;" parent="1" vertex="1">
          <mxGeometry x="950" y="936" width="40" height="20" as="geometry" />
        </mxCell>
        <mxCell id="2qasPP3fPQsoUJOk98KG-34" value="" style="endArrow=classic;html=1;rounded=0;endSize=5;strokeWidth=2;strokeColor=#000000;startArrow=none;startFill=0;entryX=0;entryY=0.5;entryDx=0;entryDy=0;exitX=1;exitY=0.5;exitDx=0;exitDy=0;endFill=1;fontSize=11;" parent="1" source="2qasPP3fPQsoUJOk98KG-30" target="2qasPP3fPQsoUJOk98KG-33" edge="1">
          <mxGeometry width="50" height="50" relative="1" as="geometry">
            <mxPoint x="1020" y="1008" as="sourcePoint" />
            <mxPoint x="839" y="1002" as="targetPoint" />
          </mxGeometry>
        </mxCell>
        <mxCell id="2qasPP3fPQsoUJOk98KG-40" value="&lt;font face=&quot;Comic Sans MS&quot;&gt;&lt;b&gt;3(7)&lt;/b&gt;&lt;/font&gt;" style="rounded=1;whiteSpace=wrap;html=1;fillColor=#99FFFF;strokeColor=#000000;fontColor=#000000;fontSize=11;" parent="1" vertex="1">
          <mxGeometry x="992" y="936" width="40" height="20" as="geometry" />
        </mxCell>
        <mxCell id="2qasPP3fPQsoUJOk98KG-41" value="&lt;font face=&quot;Comic Sans MS&quot;&gt;&lt;b&gt;4(4)&lt;/b&gt;&lt;/font&gt;" style="rounded=1;whiteSpace=wrap;html=1;fillColor=#99FFFF;strokeColor=#000000;fontColor=#000000;fontSize=11;" parent="1" vertex="1">
          <mxGeometry x="1034" y="936" width="40" height="20" as="geometry" />
        </mxCell>
        <mxCell id="2qasPP3fPQsoUJOk98KG-43" value="&lt;font face=&quot;Comic Sans MS&quot;&gt;&lt;b&gt;2&lt;/b&gt;&lt;/font&gt;" style="rounded=1;whiteSpace=wrap;html=1;fillColor=#00FFFF;strokeColor=#000000;fontColor=#000000;fontSize=11;" parent="1" vertex="1">
          <mxGeometry x="888.5" y="964" width="31.5" height="20" as="geometry" />
        </mxCell>
        <mxCell id="2qasPP3fPQsoUJOk98KG-44" value="&lt;font face=&quot;Comic Sans MS&quot;&gt;&lt;b&gt;1(2)&lt;/b&gt;&lt;/font&gt;" style="rounded=1;whiteSpace=wrap;html=1;fillColor=#99FFFF;strokeColor=#000000;fontColor=#000000;fontSize=11;" parent="1" vertex="1">
          <mxGeometry x="950" y="964" width="40" height="20" as="geometry" />
        </mxCell>
        <mxCell id="2qasPP3fPQsoUJOk98KG-45" value="" style="endArrow=classic;html=1;rounded=0;endSize=5;strokeWidth=2;strokeColor=#000000;startArrow=none;startFill=0;entryX=0;entryY=0.5;entryDx=0;entryDy=0;exitX=1;exitY=0.5;exitDx=0;exitDy=0;endFill=1;fontSize=11;" parent="1" source="2qasPP3fPQsoUJOk98KG-43" target="2qasPP3fPQsoUJOk98KG-44" edge="1">
          <mxGeometry width="50" height="50" relative="1" as="geometry">
            <mxPoint x="1020" y="1036" as="sourcePoint" />
            <mxPoint x="839" y="1030" as="targetPoint" />
          </mxGeometry>
        </mxCell>
        <mxCell id="2qasPP3fPQsoUJOk98KG-46" value="&lt;font face=&quot;Comic Sans MS&quot;&gt;&lt;b&gt;3(5)&lt;/b&gt;&lt;/font&gt;" style="rounded=1;whiteSpace=wrap;html=1;fillColor=#99FFFF;strokeColor=#000000;fontColor=#000000;fontSize=11;" parent="1" vertex="1">
          <mxGeometry x="992" y="964" width="40" height="20" as="geometry" />
        </mxCell>
        <mxCell id="2qasPP3fPQsoUJOk98KG-47" value="&lt;font face=&quot;Comic Sans MS&quot;&gt;&lt;b&gt;5(6)&lt;/b&gt;&lt;/font&gt;" style="rounded=1;whiteSpace=wrap;html=1;fillColor=#99FFFF;strokeColor=#000000;fontColor=#000000;fontSize=11;" parent="1" vertex="1">
          <mxGeometry x="1034" y="964" width="40" height="20" as="geometry" />
        </mxCell>
        <mxCell id="2qasPP3fPQsoUJOk98KG-48" value="&lt;font face=&quot;Comic Sans MS&quot;&gt;&lt;b&gt;3&lt;/b&gt;&lt;/font&gt;" style="rounded=1;whiteSpace=wrap;html=1;fillColor=#00FFFF;strokeColor=#000000;fontColor=#000000;fontSize=11;" parent="1" vertex="1">
          <mxGeometry x="888.5" y="992" width="31.5" height="20" as="geometry" />
        </mxCell>
        <mxCell id="2qasPP3fPQsoUJOk98KG-49" value="&lt;font face=&quot;Comic Sans MS&quot;&gt;&lt;b&gt;1(7)&lt;/b&gt;&lt;/font&gt;" style="rounded=1;whiteSpace=wrap;html=1;fillColor=#99FFFF;strokeColor=#000000;fontColor=#000000;fontSize=11;" parent="1" vertex="1">
          <mxGeometry x="950" y="992" width="40" height="20" as="geometry" />
        </mxCell>
        <mxCell id="2qasPP3fPQsoUJOk98KG-50" value="" style="endArrow=classic;html=1;rounded=0;endSize=5;strokeWidth=2;strokeColor=#000000;startArrow=none;startFill=0;entryX=0;entryY=0.5;entryDx=0;entryDy=0;exitX=1;exitY=0.5;exitDx=0;exitDy=0;endFill=1;fontSize=11;" parent="1" source="2qasPP3fPQsoUJOk98KG-48" target="2qasPP3fPQsoUJOk98KG-49" edge="1">
          <mxGeometry width="50" height="50" relative="1" as="geometry">
            <mxPoint x="1020" y="1064" as="sourcePoint" />
            <mxPoint x="839" y="1058" as="targetPoint" />
          </mxGeometry>
        </mxCell>
        <mxCell id="2qasPP3fPQsoUJOk98KG-51" value="&lt;font face=&quot;Comic Sans MS&quot;&gt;&lt;b&gt;2(5)&lt;/b&gt;&lt;/font&gt;" style="rounded=1;whiteSpace=wrap;html=1;fillColor=#99FFFF;strokeColor=#000000;fontColor=#000000;fontSize=11;" parent="1" vertex="1">
          <mxGeometry x="992" y="992" width="40" height="20" as="geometry" />
        </mxCell>
        <mxCell id="2qasPP3fPQsoUJOk98KG-52" value="&lt;font face=&quot;Comic Sans MS&quot;&gt;&lt;b&gt;5(3)&lt;/b&gt;&lt;/font&gt;" style="rounded=1;whiteSpace=wrap;html=1;fillColor=#99FFFF;strokeColor=#000000;fontColor=#000000;fontSize=11;" parent="1" vertex="1">
          <mxGeometry x="1034" y="992" width="40" height="20" as="geometry" />
        </mxCell>
        <mxCell id="2qasPP3fPQsoUJOk98KG-53" value="&lt;font face=&quot;Comic Sans MS&quot;&gt;&lt;b&gt;4&lt;/b&gt;&lt;/font&gt;" style="rounded=1;whiteSpace=wrap;html=1;fillColor=#00FFFF;strokeColor=#000000;fontColor=#000000;fontSize=11;" parent="1" vertex="1">
          <mxGeometry x="888.5" y="1020" width="31.5" height="20" as="geometry" />
        </mxCell>
        <mxCell id="2qasPP3fPQsoUJOk98KG-54" value="&lt;font face=&quot;Comic Sans MS&quot;&gt;&lt;b&gt;1(4)&lt;/b&gt;&lt;/font&gt;" style="rounded=1;whiteSpace=wrap;html=1;fillColor=#99FFFF;strokeColor=#000000;fontColor=#000000;fontSize=11;" parent="1" vertex="1">
          <mxGeometry x="950" y="1020" width="40" height="20" as="geometry" />
        </mxCell>
        <mxCell id="2qasPP3fPQsoUJOk98KG-55" value="" style="endArrow=classic;html=1;rounded=0;endSize=5;strokeWidth=2;strokeColor=#000000;startArrow=none;startFill=0;entryX=0;entryY=0.5;entryDx=0;entryDy=0;exitX=1;exitY=0.5;exitDx=0;exitDy=0;endFill=1;fontSize=11;" parent="1" source="2qasPP3fPQsoUJOk98KG-53" target="2qasPP3fPQsoUJOk98KG-54" edge="1">
          <mxGeometry width="50" height="50" relative="1" as="geometry">
            <mxPoint x="1020" y="1092" as="sourcePoint" />
            <mxPoint x="839" y="1086" as="targetPoint" />
          </mxGeometry>
        </mxCell>
        <mxCell id="2qasPP3fPQsoUJOk98KG-56" value="&lt;font face=&quot;Comic Sans MS&quot;&gt;&lt;b&gt;5(8)&lt;/b&gt;&lt;/font&gt;" style="rounded=1;whiteSpace=wrap;html=1;fillColor=#99FFFF;strokeColor=#000000;fontColor=#000000;fontSize=11;" parent="1" vertex="1">
          <mxGeometry x="992" y="1020" width="40" height="20" as="geometry" />
        </mxCell>
        <mxCell id="2qasPP3fPQsoUJOk98KG-58" value="&lt;font face=&quot;Comic Sans MS&quot;&gt;&lt;b&gt;5&lt;/b&gt;&lt;/font&gt;" style="rounded=1;whiteSpace=wrap;html=1;fillColor=#00FFFF;strokeColor=#000000;fontColor=#000000;fontSize=11;" parent="1" vertex="1">
          <mxGeometry x="888.5" y="1048" width="31.5" height="20" as="geometry" />
        </mxCell>
        <mxCell id="2qasPP3fPQsoUJOk98KG-59" value="&lt;font face=&quot;Comic Sans MS&quot;&gt;&lt;b&gt;2(6)&lt;/b&gt;&lt;/font&gt;" style="rounded=1;whiteSpace=wrap;html=1;fillColor=#99FFFF;strokeColor=#000000;fontColor=#000000;fontSize=11;" parent="1" vertex="1">
          <mxGeometry x="950" y="1048" width="40" height="20" as="geometry" />
        </mxCell>
        <mxCell id="2qasPP3fPQsoUJOk98KG-60" value="" style="endArrow=classic;html=1;rounded=0;endSize=5;strokeWidth=2;strokeColor=#000000;startArrow=none;startFill=0;entryX=0;entryY=0.5;entryDx=0;entryDy=0;exitX=1;exitY=0.5;exitDx=0;exitDy=0;endFill=1;fontSize=11;" parent="1" source="2qasPP3fPQsoUJOk98KG-58" target="2qasPP3fPQsoUJOk98KG-59" edge="1">
          <mxGeometry width="50" height="50" relative="1" as="geometry">
            <mxPoint x="1020" y="1120" as="sourcePoint" />
            <mxPoint x="839" y="1114" as="targetPoint" />
          </mxGeometry>
        </mxCell>
        <mxCell id="2qasPP3fPQsoUJOk98KG-61" value="&lt;font face=&quot;Comic Sans MS&quot;&gt;&lt;b&gt;3(3)&lt;/b&gt;&lt;/font&gt;" style="rounded=1;whiteSpace=wrap;html=1;fillColor=#99FFFF;strokeColor=#000000;fontColor=#000000;fontSize=11;" parent="1" vertex="1">
          <mxGeometry x="992" y="1048" width="40" height="20" as="geometry" />
        </mxCell>
        <mxCell id="2qasPP3fPQsoUJOk98KG-62" value="&lt;font face=&quot;Comic Sans MS&quot;&gt;&lt;b&gt;4(8)&lt;/b&gt;&lt;/font&gt;" style="rounded=1;whiteSpace=wrap;html=1;fillColor=#99FFFF;strokeColor=#000000;fontColor=#000000;fontSize=11;" parent="1" vertex="1">
          <mxGeometry x="1034" y="1048" width="40" height="20" as="geometry" />
        </mxCell>
        <mxCell id="w_8HsDneWyBDN1gnofwD-1" value="&lt;b style=&quot;color: rgb(0, 0, 0); font-family: &amp;quot;Comic Sans MS&amp;quot;;&quot;&gt;1&lt;/b&gt;" style="ellipse;whiteSpace=wrap;html=1;aspect=fixed;fillColor=#00FFFF;strokeColor=#000000;" parent="1" vertex="1">
          <mxGeometry x="516.5" y="1209" width="30" height="30" as="geometry" />
        </mxCell>
        <mxCell id="w_8HsDneWyBDN1gnofwD-2" value="&lt;font face=&quot;Comic Sans MS&quot; color=&quot;#000000&quot;&gt;&lt;b&gt;2&lt;/b&gt;&lt;/font&gt;" style="ellipse;whiteSpace=wrap;html=1;aspect=fixed;fillColor=#00FFFF;strokeColor=#000000;" parent="1" vertex="1">
          <mxGeometry x="591.5" y="1209" width="30" height="30" as="geometry" />
        </mxCell>
        <mxCell id="w_8HsDneWyBDN1gnofwD-3" value="&lt;b style=&quot;color: rgb(0, 0, 0); font-family: &amp;quot;Comic Sans MS&amp;quot;;&quot;&gt;4&lt;/b&gt;" style="ellipse;whiteSpace=wrap;html=1;aspect=fixed;fillColor=#00FFFF;strokeColor=#000000;" parent="1" vertex="1">
          <mxGeometry x="484" y="1309" width="30" height="30" as="geometry" />
        </mxCell>
        <mxCell id="w_8HsDneWyBDN1gnofwD-4" value="&lt;font face=&quot;Comic Sans MS&quot; color=&quot;#000000&quot;&gt;&lt;b&gt;5&lt;/b&gt;&lt;/font&gt;" style="ellipse;whiteSpace=wrap;html=1;aspect=fixed;fillColor=#00FFFF;strokeColor=#000000;" parent="1" vertex="1">
          <mxGeometry x="554" y="1309" width="30" height="30" as="geometry" />
        </mxCell>
        <mxCell id="w_8HsDneWyBDN1gnofwD-5" value="" style="endArrow=none;html=1;rounded=0;endSize=7;strokeWidth=2;strokeColor=#000000;startArrow=none;startFill=0;entryX=0.5;entryY=1;entryDx=0;entryDy=0;exitX=0.5;exitY=0;exitDx=0;exitDy=0;" parent="1" source="w_8HsDneWyBDN1gnofwD-3" target="w_8HsDneWyBDN1gnofwD-1" edge="1">
          <mxGeometry width="50" height="50" relative="1" as="geometry">
            <mxPoint x="488.5" y="1313" as="sourcePoint" />
            <mxPoint x="522.5" y="1334" as="targetPoint" />
          </mxGeometry>
        </mxCell>
        <mxCell id="w_8HsDneWyBDN1gnofwD-7" value="&lt;font face=&quot;Comic Sans MS&quot; color=&quot;#000000&quot;&gt;&lt;b&gt;3&lt;/b&gt;&lt;/font&gt;" style="ellipse;whiteSpace=wrap;html=1;aspect=fixed;fillColor=#00FFFF;strokeColor=#000000;" parent="1" vertex="1">
          <mxGeometry x="625" y="1309" width="30" height="30" as="geometry" />
        </mxCell>
        <mxCell id="w_8HsDneWyBDN1gnofwD-20" value="&lt;b style=&quot;color: rgb(0, 0, 0); font-family: &amp;quot;Comic Sans MS&amp;quot;;&quot;&gt;1&lt;/b&gt;" style="ellipse;whiteSpace=wrap;html=1;aspect=fixed;fillColor=#00FF00;strokeColor=#000000;" parent="1" vertex="1">
          <mxGeometry x="1134.75" y="1239.5" width="30" height="30" as="geometry" />
        </mxCell>
        <mxCell id="w_8HsDneWyBDN1gnofwD-21" value="&lt;font face=&quot;Comic Sans MS&quot; color=&quot;#000000&quot;&gt;&lt;b&gt;2&lt;/b&gt;&lt;/font&gt;" style="ellipse;whiteSpace=wrap;html=1;aspect=fixed;fillColor=#00FF00;strokeColor=#000000;" parent="1" vertex="1">
          <mxGeometry x="1204.75" y="1187.5" width="30" height="30" as="geometry" />
        </mxCell>
        <mxCell id="w_8HsDneWyBDN1gnofwD-22" value="&lt;b style=&quot;color: rgb(0, 0, 0); font-family: &amp;quot;Comic Sans MS&amp;quot;;&quot;&gt;4&lt;/b&gt;" style="ellipse;whiteSpace=wrap;html=1;aspect=fixed;fillColor=#00FF00;strokeColor=#000000;" parent="1" vertex="1">
          <mxGeometry x="1164.75" y="1309.5" width="30" height="30" as="geometry" />
        </mxCell>
        <mxCell id="w_8HsDneWyBDN1gnofwD-23" value="&lt;font face=&quot;Comic Sans MS&quot; color=&quot;#000000&quot;&gt;&lt;b&gt;5&lt;/b&gt;&lt;/font&gt;" style="ellipse;whiteSpace=wrap;html=1;aspect=fixed;fillColor=#00FF00;strokeColor=#000000;" parent="1" vertex="1">
          <mxGeometry x="1244.75" y="1309.5" width="30" height="30" as="geometry" />
        </mxCell>
        <mxCell id="w_8HsDneWyBDN1gnofwD-24" value="" style="endArrow=none;html=1;rounded=0;endSize=7;strokeWidth=2;strokeColor=#000000;startArrow=none;startFill=0;entryX=0.5;entryY=1;entryDx=0;entryDy=0;exitX=0;exitY=0;exitDx=0;exitDy=0;" parent="1" source="w_8HsDneWyBDN1gnofwD-22" target="w_8HsDneWyBDN1gnofwD-20" edge="1">
          <mxGeometry width="50" height="50" relative="1" as="geometry">
            <mxPoint x="1266" y="1334.5" as="sourcePoint" />
            <mxPoint x="1181" y="1334.5" as="targetPoint" />
          </mxGeometry>
        </mxCell>
        <mxCell id="w_8HsDneWyBDN1gnofwD-25" value="&lt;font face=&quot;Comic Sans MS&quot; color=&quot;#000000&quot;&gt;&lt;b&gt;3&lt;/b&gt;&lt;/font&gt;" style="ellipse;whiteSpace=wrap;html=1;aspect=fixed;fillColor=#00FF00;strokeColor=#000000;" parent="1" vertex="1">
          <mxGeometry x="1274.75" y="1239.5" width="30" height="30" as="geometry" />
        </mxCell>
        <mxCell id="w_8HsDneWyBDN1gnofwD-26" value="" style="endArrow=none;html=1;rounded=0;endSize=7;strokeWidth=2;strokeColor=#000000;startArrow=none;startFill=0;entryX=1;entryY=0.5;entryDx=0;entryDy=0;exitX=0;exitY=0.5;exitDx=0;exitDy=0;" parent="1" source="w_8HsDneWyBDN1gnofwD-23" target="w_8HsDneWyBDN1gnofwD-22" edge="1">
          <mxGeometry width="50" height="50" relative="1" as="geometry">
            <mxPoint x="1179" y="1323.5" as="sourcePoint" />
            <mxPoint x="1160" y="1279.5" as="targetPoint" />
          </mxGeometry>
        </mxCell>
        <mxCell id="w_8HsDneWyBDN1gnofwD-27" value="" style="endArrow=none;html=1;rounded=0;endSize=7;strokeWidth=2;strokeColor=#000000;startArrow=none;startFill=0;entryX=1;entryY=0;entryDx=0;entryDy=0;exitX=0.5;exitY=1;exitDx=0;exitDy=0;" parent="1" source="w_8HsDneWyBDN1gnofwD-25" target="w_8HsDneWyBDN1gnofwD-23" edge="1">
          <mxGeometry width="50" height="50" relative="1" as="geometry">
            <mxPoint x="1255" y="1334.5" as="sourcePoint" />
            <mxPoint x="1205" y="1334.5" as="targetPoint" />
          </mxGeometry>
        </mxCell>
        <mxCell id="w_8HsDneWyBDN1gnofwD-28" value="" style="endArrow=none;html=1;rounded=0;endSize=7;strokeWidth=2;strokeColor=#000000;startArrow=none;startFill=0;entryX=0;entryY=0;entryDx=0;entryDy=0;exitX=1;exitY=1;exitDx=0;exitDy=0;" parent="1" source="w_8HsDneWyBDN1gnofwD-21" target="w_8HsDneWyBDN1gnofwD-25" edge="1">
          <mxGeometry width="50" height="50" relative="1" as="geometry">
            <mxPoint x="1230" y="1209.5" as="sourcePoint" />
            <mxPoint x="1280" y="1323.5" as="targetPoint" />
          </mxGeometry>
        </mxCell>
        <mxCell id="w_8HsDneWyBDN1gnofwD-29" value="" style="endArrow=none;html=1;rounded=0;endSize=7;strokeWidth=2;strokeColor=#000000;startArrow=none;startFill=0;entryX=0;entryY=1;entryDx=0;entryDy=0;exitX=1;exitY=0;exitDx=0;exitDy=0;" parent="1" source="w_8HsDneWyBDN1gnofwD-20" target="w_8HsDneWyBDN1gnofwD-21" edge="1">
          <mxGeometry width="50" height="50" relative="1" as="geometry">
            <mxPoint x="1240" y="1219.5" as="sourcePoint" />
            <mxPoint x="1289" y="1253.5" as="targetPoint" />
          </mxGeometry>
        </mxCell>
        <mxCell id="w_8HsDneWyBDN1gnofwD-30" value="" style="endArrow=none;html=1;rounded=0;endSize=7;strokeWidth=2;strokeColor=#000000;startArrow=none;startFill=0;entryX=0;entryY=0.5;entryDx=0;entryDy=0;exitX=1;exitY=0.5;exitDx=0;exitDy=0;" parent="1" source="w_8HsDneWyBDN1gnofwD-20" target="w_8HsDneWyBDN1gnofwD-25" edge="1">
          <mxGeometry width="50" height="50" relative="1" as="geometry">
            <mxPoint x="1170" y="1253.5" as="sourcePoint" />
            <mxPoint x="1219" y="1223.5" as="targetPoint" />
          </mxGeometry>
        </mxCell>
        <mxCell id="w_8HsDneWyBDN1gnofwD-31" value="" style="endArrow=none;html=1;rounded=0;endSize=7;strokeWidth=2;strokeColor=#000000;startArrow=none;startFill=0;entryX=0.5;entryY=0;entryDx=0;entryDy=0;exitX=0.5;exitY=1;exitDx=0;exitDy=0;" parent="1" source="w_8HsDneWyBDN1gnofwD-21" target="w_8HsDneWyBDN1gnofwD-22" edge="1">
          <mxGeometry width="50" height="50" relative="1" as="geometry">
            <mxPoint x="1176.25" y="1267.5" as="sourcePoint" />
            <mxPoint x="1285.25" y="1264.5" as="targetPoint" />
          </mxGeometry>
        </mxCell>
        <mxCell id="w_8HsDneWyBDN1gnofwD-32" value="" style="endArrow=none;html=1;rounded=0;endSize=7;strokeWidth=2;strokeColor=#000000;startArrow=none;startFill=0;entryX=0.5;entryY=0;entryDx=0;entryDy=0;exitX=0.5;exitY=1;exitDx=0;exitDy=0;" parent="1" source="w_8HsDneWyBDN1gnofwD-21" target="w_8HsDneWyBDN1gnofwD-23" edge="1">
          <mxGeometry width="50" height="50" relative="1" as="geometry">
            <mxPoint x="1230.25" y="1227.5" as="sourcePoint" />
            <mxPoint x="1187.25" y="1323.5" as="targetPoint" />
          </mxGeometry>
        </mxCell>
        <mxCell id="w_8HsDneWyBDN1gnofwD-33" value="&lt;font style=&quot;font-size: 9px;&quot; face=&quot;Comic Sans MS&quot;&gt;&lt;b style=&quot;&quot;&gt;Planar Graph&lt;/b&gt;&lt;/font&gt;" style="rounded=1;whiteSpace=wrap;html=1;fillColor=#FFFF00;strokeColor=#000000;fontColor=#000000;" parent="1" vertex="1">
          <mxGeometry x="742" y="1157.5" width="100" height="18" as="geometry" />
        </mxCell>
        <mxCell id="w_8HsDneWyBDN1gnofwD-34" value="&lt;font style=&quot;font-size: 9px;&quot; face=&quot;Comic Sans MS&quot;&gt;&lt;b style=&quot;&quot;&gt;Non-Planar Graph&lt;/b&gt;&lt;/font&gt;" style="rounded=1;whiteSpace=wrap;html=1;fillColor=#FFFF00;strokeColor=#000000;fontColor=#000000;" parent="1" vertex="1">
          <mxGeometry x="1169.75" y="1157.5" width="100" height="18" as="geometry" />
        </mxCell>
        <mxCell id="w_8HsDneWyBDN1gnofwD-35" value="" style="endArrow=none;html=1;rounded=0;endSize=7;strokeWidth=2;strokeColor=#000000;startArrow=none;startFill=0;entryX=1;entryY=1;entryDx=0;entryDy=0;exitX=0;exitY=0;exitDx=0;exitDy=0;" parent="1" source="w_8HsDneWyBDN1gnofwD-23" target="w_8HsDneWyBDN1gnofwD-20" edge="1">
          <mxGeometry width="50" height="50" relative="1" as="geometry">
            <mxPoint x="1230.25" y="1227.5" as="sourcePoint" />
            <mxPoint x="1190.25" y="1319.5" as="targetPoint" />
          </mxGeometry>
        </mxCell>
        <mxCell id="w_8HsDneWyBDN1gnofwD-36" value="" style="endArrow=none;html=1;rounded=0;endSize=7;strokeWidth=2;strokeColor=#000000;startArrow=none;startFill=0;entryX=1;entryY=0;entryDx=0;entryDy=0;exitX=0;exitY=1;exitDx=0;exitDy=0;" parent="1" source="w_8HsDneWyBDN1gnofwD-25" target="w_8HsDneWyBDN1gnofwD-22" edge="1">
          <mxGeometry width="50" height="50" relative="1" as="geometry">
            <mxPoint x="1259.25" y="1323.5" as="sourcePoint" />
            <mxPoint x="1170.25" y="1275.5" as="targetPoint" />
          </mxGeometry>
        </mxCell>
        <mxCell id="w_8HsDneWyBDN1gnofwD-38" value="" style="endArrow=none;html=1;rounded=0;endSize=7;strokeWidth=2;strokeColor=#000000;startArrow=none;startFill=0;entryX=0.5;entryY=1;entryDx=0;entryDy=0;exitX=0.5;exitY=0;exitDx=0;exitDy=0;" parent="1" source="w_8HsDneWyBDN1gnofwD-7" target="w_8HsDneWyBDN1gnofwD-2" edge="1">
          <mxGeometry width="50" height="50" relative="1" as="geometry">
            <mxPoint x="626.5" y="1334" as="sourcePoint" />
            <mxPoint x="594.5" y="1334" as="targetPoint" />
          </mxGeometry>
        </mxCell>
        <mxCell id="w_8HsDneWyBDN1gnofwD-39" value="" style="endArrow=none;html=1;rounded=0;endSize=7;strokeWidth=2;strokeColor=#000000;startArrow=none;startFill=0;entryX=0;entryY=1;entryDx=0;entryDy=0;exitX=1;exitY=0;exitDx=0;exitDy=0;" parent="1" source="w_8HsDneWyBDN1gnofwD-3" target="w_8HsDneWyBDN1gnofwD-2" edge="1">
          <mxGeometry width="50" height="50" relative="1" as="geometry">
            <mxPoint x="509.5" y="1319" as="sourcePoint" />
            <mxPoint x="546.5" y="1249" as="targetPoint" />
          </mxGeometry>
        </mxCell>
        <mxCell id="w_8HsDneWyBDN1gnofwD-40" value="" style="endArrow=none;html=1;rounded=0;endSize=7;strokeWidth=2;strokeColor=#000000;startArrow=none;startFill=0;entryX=1;entryY=1;entryDx=0;entryDy=0;exitX=0.5;exitY=0;exitDx=0;exitDy=0;" parent="1" source="w_8HsDneWyBDN1gnofwD-4" target="w_8HsDneWyBDN1gnofwD-1" edge="1">
          <mxGeometry width="50" height="50" relative="1" as="geometry">
            <mxPoint x="509.5" y="1319" as="sourcePoint" />
            <mxPoint x="546.5" y="1249" as="targetPoint" />
          </mxGeometry>
        </mxCell>
        <mxCell id="w_8HsDneWyBDN1gnofwD-41" value="" style="endArrow=none;html=1;rounded=0;endSize=7;strokeWidth=2;strokeColor=#000000;startArrow=none;startFill=0;entryX=0.5;entryY=1;entryDx=0;entryDy=0;exitX=0.5;exitY=0;exitDx=0;exitDy=0;" parent="1" source="w_8HsDneWyBDN1gnofwD-4" target="w_8HsDneWyBDN1gnofwD-2" edge="1">
          <mxGeometry width="50" height="50" relative="1" as="geometry">
            <mxPoint x="579.5" y="1319" as="sourcePoint" />
            <mxPoint x="557.5" y="1245" as="targetPoint" />
          </mxGeometry>
        </mxCell>
        <mxCell id="w_8HsDneWyBDN1gnofwD-42" value="" style="endArrow=none;html=1;rounded=0;endSize=7;strokeWidth=2;strokeColor=#000000;startArrow=none;startFill=0;entryX=1;entryY=1;entryDx=0;entryDy=0;exitX=0;exitY=0;exitDx=0;exitDy=0;" parent="1" source="w_8HsDneWyBDN1gnofwD-7" target="w_8HsDneWyBDN1gnofwD-1" edge="1">
          <mxGeometry width="50" height="50" relative="1" as="geometry">
            <mxPoint x="519.5" y="1323" as="sourcePoint" />
            <mxPoint x="600.5" y="1245" as="targetPoint" />
          </mxGeometry>
        </mxCell>
        <mxCell id="w_8HsDneWyBDN1gnofwD-54" value="&lt;b style=&quot;color: rgb(0, 0, 0); font-family: &amp;quot;Comic Sans MS&amp;quot;;&quot;&gt;1&lt;/b&gt;" style="ellipse;whiteSpace=wrap;html=1;aspect=fixed;fillColor=#00FFFF;strokeColor=#000000;" parent="1" vertex="1">
          <mxGeometry x="746.25" y="1187" width="30" height="30" as="geometry" />
        </mxCell>
        <mxCell id="w_8HsDneWyBDN1gnofwD-55" value="&lt;b style=&quot;color: rgb(0, 0, 0); font-family: &amp;quot;Comic Sans MS&amp;quot;;&quot;&gt;4&lt;/b&gt;" style="ellipse;whiteSpace=wrap;html=1;aspect=fixed;fillColor=#00FFFF;strokeColor=#000000;" parent="1" vertex="1">
          <mxGeometry x="711.5" y="1247" width="30" height="30" as="geometry" />
        </mxCell>
        <mxCell id="w_8HsDneWyBDN1gnofwD-56" value="&lt;font face=&quot;Comic Sans MS&quot; color=&quot;#000000&quot;&gt;&lt;b&gt;5&lt;/b&gt;&lt;/font&gt;" style="ellipse;whiteSpace=wrap;html=1;aspect=fixed;fillColor=#00FFFF;strokeColor=#000000;" parent="1" vertex="1">
          <mxGeometry x="781.5" y="1247" width="30" height="30" as="geometry" />
        </mxCell>
        <mxCell id="w_8HsDneWyBDN1gnofwD-57" value="&lt;font face=&quot;Comic Sans MS&quot; color=&quot;#000000&quot;&gt;&lt;b&gt;3&lt;/b&gt;&lt;/font&gt;" style="ellipse;whiteSpace=wrap;html=1;aspect=fixed;fillColor=#00FFFF;strokeColor=#000000;" parent="1" vertex="1">
          <mxGeometry x="852.5" y="1247" width="30" height="30" as="geometry" />
        </mxCell>
        <mxCell id="w_8HsDneWyBDN1gnofwD-58" value="&lt;font face=&quot;Comic Sans MS&quot; color=&quot;#000000&quot;&gt;&lt;b&gt;2&lt;/b&gt;&lt;/font&gt;" style="ellipse;whiteSpace=wrap;html=1;aspect=fixed;fillColor=#00FFFF;strokeColor=#000000;" parent="1" vertex="1">
          <mxGeometry x="816" y="1309" width="30" height="30" as="geometry" />
        </mxCell>
        <mxCell id="w_8HsDneWyBDN1gnofwD-59" value="" style="endArrow=none;html=1;rounded=0;endSize=7;strokeWidth=2;strokeColor=#000000;startArrow=none;startFill=0;entryX=0;entryY=1;entryDx=0;entryDy=0;exitX=0.5;exitY=0;exitDx=0;exitDy=0;" parent="1" source="w_8HsDneWyBDN1gnofwD-55" target="w_8HsDneWyBDN1gnofwD-54" edge="1">
          <mxGeometry width="50" height="50" relative="1" as="geometry">
            <mxPoint x="673" y="1319" as="sourcePoint" />
            <mxPoint x="639" y="1249" as="targetPoint" />
          </mxGeometry>
        </mxCell>
        <mxCell id="w_8HsDneWyBDN1gnofwD-60" value="" style="endArrow=none;html=1;rounded=0;endSize=7;strokeWidth=2;strokeColor=#000000;startArrow=none;startFill=0;entryX=1;entryY=1;entryDx=0;entryDy=0;exitX=0.5;exitY=0;exitDx=0;exitDy=0;" parent="1" source="w_8HsDneWyBDN1gnofwD-56" target="w_8HsDneWyBDN1gnofwD-54" edge="1">
          <mxGeometry width="50" height="50" relative="1" as="geometry">
            <mxPoint x="737" y="1257" as="sourcePoint" />
            <mxPoint x="761" y="1223" as="targetPoint" />
          </mxGeometry>
        </mxCell>
        <mxCell id="w_8HsDneWyBDN1gnofwD-61" value="" style="endArrow=none;html=1;rounded=0;endSize=7;strokeWidth=2;strokeColor=#000000;startArrow=none;startFill=0;entryX=1;entryY=0.5;entryDx=0;entryDy=0;exitX=0;exitY=0;exitDx=0;exitDy=0;" parent="1" source="w_8HsDneWyBDN1gnofwD-57" target="w_8HsDneWyBDN1gnofwD-54" edge="1">
          <mxGeometry width="50" height="50" relative="1" as="geometry">
            <mxPoint x="807" y="1257" as="sourcePoint" />
            <mxPoint x="782" y="1223" as="targetPoint" />
          </mxGeometry>
        </mxCell>
        <mxCell id="w_8HsDneWyBDN1gnofwD-62" value="" style="endArrow=none;html=1;rounded=0;endSize=7;strokeWidth=2;strokeColor=#000000;startArrow=none;startFill=0;entryX=0;entryY=0;entryDx=0;entryDy=0;exitX=1;exitY=1;exitDx=0;exitDy=0;" parent="1" source="w_8HsDneWyBDN1gnofwD-55" target="w_8HsDneWyBDN1gnofwD-58" edge="1">
          <mxGeometry width="50" height="50" relative="1" as="geometry">
            <mxPoint x="737" y="1257" as="sourcePoint" />
            <mxPoint x="761" y="1223" as="targetPoint" />
          </mxGeometry>
        </mxCell>
        <mxCell id="w_8HsDneWyBDN1gnofwD-63" value="" style="endArrow=none;html=1;rounded=0;endSize=7;strokeWidth=2;strokeColor=#000000;startArrow=none;startFill=0;entryX=1;entryY=1;entryDx=0;entryDy=0;exitX=0.5;exitY=0;exitDx=0;exitDy=0;" parent="1" source="w_8HsDneWyBDN1gnofwD-58" target="w_8HsDneWyBDN1gnofwD-56" edge="1">
          <mxGeometry width="50" height="50" relative="1" as="geometry">
            <mxPoint x="826.5" y="1311" as="sourcePoint" />
            <mxPoint x="801.5" y="1277" as="targetPoint" />
          </mxGeometry>
        </mxCell>
        <mxCell id="w_8HsDneWyBDN1gnofwD-64" value="" style="endArrow=none;html=1;rounded=0;endSize=7;strokeWidth=2;strokeColor=#000000;startArrow=none;startFill=0;entryX=0.5;entryY=1;entryDx=0;entryDy=0;exitX=1;exitY=0;exitDx=0;exitDy=0;" parent="1" source="w_8HsDneWyBDN1gnofwD-58" target="w_8HsDneWyBDN1gnofwD-57" edge="1">
          <mxGeometry width="50" height="50" relative="1" as="geometry">
            <mxPoint x="832.44" y="1328.13" as="sourcePoint" />
            <mxPoint x="857.5" y="1287" as="targetPoint" />
          </mxGeometry>
        </mxCell>
        <mxCell id="w_8HsDneWyBDN1gnofwD-65" value="" style="shape=flexArrow;endArrow=classic;html=1;rounded=0;fillColor=#000000;strokeColor=#000000;" parent="1" edge="1">
          <mxGeometry width="50" height="50" relative="1" as="geometry">
            <mxPoint x="634" y="1267" as="sourcePoint" />
            <mxPoint x="704" y="1267" as="targetPoint" />
          </mxGeometry>
        </mxCell>
        <mxCell id="w_8HsDneWyBDN1gnofwD-66" value="&lt;font face=&quot;Comic Sans MS&quot;&gt;&lt;i&gt;Can be Redrawn&lt;/i&gt;&lt;/font&gt;" style="edgeLabel;html=1;align=center;verticalAlign=middle;resizable=0;points=[];labelBackgroundColor=none;fontSize=12;fontColor=#000000;" parent="w_8HsDneWyBDN1gnofwD-65" vertex="1" connectable="0">
          <mxGeometry x="0.1511" y="-1" relative="1" as="geometry">
            <mxPoint x="-5" y="-29" as="offset" />
          </mxGeometry>
        </mxCell>
        <mxCell id="w_8HsDneWyBDN1gnofwD-69" value="&lt;font face=&quot;Comic Sans MS&quot; color=&quot;#000000&quot;&gt;&lt;b&gt;B&lt;/b&gt;&lt;/font&gt;" style="ellipse;whiteSpace=wrap;html=1;aspect=fixed;fillColor=#00FF00;strokeColor=#000000;" parent="1" vertex="1">
          <mxGeometry x="559.25" y="1463" width="30" height="30" as="geometry" />
        </mxCell>
        <mxCell id="w_8HsDneWyBDN1gnofwD-77" value="" style="endArrow=classic;html=1;rounded=0;endSize=7;strokeWidth=2;strokeColor=#330066;startArrow=none;startFill=0;entryX=1;entryY=0.5;entryDx=0;entryDy=0;exitX=0;exitY=0.5;exitDx=0;exitDy=0;endFill=1;" parent="1" source="w_8HsDneWyBDN1gnofwD-84" target="w_8HsDneWyBDN1gnofwD-86" edge="1">
          <mxGeometry width="50" height="50" relative="1" as="geometry">
            <mxPoint x="576" y="1578.77" as="sourcePoint" />
            <mxPoint x="631.25" y="1578.77" as="targetPoint" />
          </mxGeometry>
        </mxCell>
        <mxCell id="w_8HsDneWyBDN1gnofwD-83" value="&lt;font face=&quot;Comic Sans MS&quot; color=&quot;#000000&quot;&gt;&lt;b&gt;A&lt;/b&gt;&lt;/font&gt;" style="ellipse;whiteSpace=wrap;html=1;aspect=fixed;fillColor=#B3FF66;strokeColor=#000000;" parent="1" vertex="1">
          <mxGeometry x="461.25" y="1463" width="30" height="30" as="geometry" />
        </mxCell>
        <mxCell id="w_8HsDneWyBDN1gnofwD-84" value="&lt;font face=&quot;Comic Sans MS&quot; color=&quot;#000000&quot;&gt;&lt;b&gt;C&lt;/b&gt;&lt;/font&gt;" style="ellipse;whiteSpace=wrap;html=1;aspect=fixed;fillColor=#B3FF66;strokeColor=#000000;" parent="1" vertex="1">
          <mxGeometry x="558.75" y="1549.25" width="30" height="30" as="geometry" />
        </mxCell>
        <mxCell id="w_8HsDneWyBDN1gnofwD-86" value="&lt;font face=&quot;Comic Sans MS&quot; color=&quot;#000000&quot;&gt;&lt;b&gt;D&lt;/b&gt;&lt;/font&gt;" style="ellipse;whiteSpace=wrap;html=1;aspect=fixed;fillColor=#FFFF00;strokeColor=#000000;" parent="1" vertex="1">
          <mxGeometry x="460.75" y="1549.25" width="30" height="30" as="geometry" />
        </mxCell>
        <mxCell id="w_8HsDneWyBDN1gnofwD-88" value="" style="endArrow=classic;html=1;rounded=0;endSize=7;strokeWidth=2;strokeColor=#330066;startArrow=none;startFill=0;entryX=0.5;entryY=0;entryDx=0;entryDy=0;exitX=0.5;exitY=1;exitDx=0;exitDy=0;endFill=1;" parent="1" source="w_8HsDneWyBDN1gnofwD-69" target="w_8HsDneWyBDN1gnofwD-84" edge="1">
          <mxGeometry width="50" height="50" relative="1" as="geometry">
            <mxPoint x="514.25" y="1488" as="sourcePoint" />
            <mxPoint x="569.25" y="1488" as="targetPoint" />
          </mxGeometry>
        </mxCell>
        <mxCell id="w_8HsDneWyBDN1gnofwD-89" value="" style="endArrow=classic;html=1;rounded=0;endSize=7;strokeWidth=2;strokeColor=#330066;startArrow=none;startFill=0;entryX=0.5;entryY=1;entryDx=0;entryDy=0;exitX=0.5;exitY=0;exitDx=0;exitDy=0;endFill=1;" parent="1" source="w_8HsDneWyBDN1gnofwD-86" target="w_8HsDneWyBDN1gnofwD-83" edge="1">
          <mxGeometry width="50" height="50" relative="1" as="geometry">
            <mxPoint x="556.5" y="1568" as="sourcePoint" />
            <mxPoint x="501.5" y="1568" as="targetPoint" />
          </mxGeometry>
        </mxCell>
        <mxCell id="w_8HsDneWyBDN1gnofwD-90" value="" style="endArrow=classic;html=1;rounded=0;endSize=7;strokeWidth=2;strokeColor=#4C0099;startArrow=none;startFill=0;entryX=0;entryY=0.5;entryDx=0;entryDy=0;exitX=1;exitY=0.5;exitDx=0;exitDy=0;endFill=1;" parent="1" source="w_8HsDneWyBDN1gnofwD-83" target="w_8HsDneWyBDN1gnofwD-69" edge="1">
          <mxGeometry width="50" height="50" relative="1" as="geometry">
            <mxPoint x="486.5" y="1553" as="sourcePoint" />
            <mxPoint x="486.5" y="1503" as="targetPoint" />
          </mxGeometry>
        </mxCell>
        <mxCell id="w_8HsDneWyBDN1gnofwD-91" value="" style="endArrow=classic;html=1;rounded=0;endSize=7;strokeWidth=2;strokeColor=#4C0099;startArrow=none;startFill=0;entryX=0.842;entryY=0;entryDx=0;entryDy=0;exitX=0;exitY=1;exitDx=0;exitDy=0;endFill=1;entryPerimeter=0;" parent="1" source="w_8HsDneWyBDN1gnofwD-69" target="w_8HsDneWyBDN1gnofwD-86" edge="1">
          <mxGeometry width="50" height="50" relative="1" as="geometry">
            <mxPoint x="501.5" y="1488" as="sourcePoint" />
            <mxPoint x="556.5" y="1488" as="targetPoint" />
          </mxGeometry>
        </mxCell>
        <mxCell id="w_8HsDneWyBDN1gnofwD-92" value="&lt;font face=&quot;Comic Sans MS&quot;&gt;&lt;b&gt;d=3 (odd)&lt;/b&gt;&lt;/font&gt;" style="rounded=1;whiteSpace=wrap;html=1;fillColor=#80FF00;strokeColor=#000000;fontColor=#000000;" parent="1" vertex="1">
          <mxGeometry x="598.75" y="1469.25" width="79.5" height="17.5" as="geometry" />
        </mxCell>
        <mxCell id="w_8HsDneWyBDN1gnofwD-95" value="&lt;font face=&quot;Comic Sans MS&quot;&gt;&lt;b&gt;d=2 (even)&lt;/b&gt;&lt;/font&gt;" style="rounded=1;whiteSpace=wrap;html=1;fillColor=#99FFFF;strokeColor=#000000;fontColor=#000000;" parent="1" vertex="1">
          <mxGeometry x="598.75" y="1555.5" width="70.5" height="17.5" as="geometry" />
        </mxCell>
        <mxCell id="w_8HsDneWyBDN1gnofwD-96" value="&lt;font face=&quot;Comic Sans MS&quot;&gt;&lt;b&gt;d=2 (even)&lt;/b&gt;&lt;/font&gt;" style="rounded=1;whiteSpace=wrap;html=1;fillColor=#99FFFF;strokeColor=#000000;fontColor=#000000;" parent="1" vertex="1">
          <mxGeometry x="385.5" y="1469.25" width="70.5" height="17.5" as="geometry" />
        </mxCell>
        <mxCell id="w_8HsDneWyBDN1gnofwD-97" value="&lt;font face=&quot;Comic Sans MS&quot;&gt;&lt;b&gt;d=2 (even)&lt;/b&gt;&lt;/font&gt;" style="rounded=1;whiteSpace=wrap;html=1;fillColor=#FFFF66;strokeColor=#000000;fontColor=#000000;" parent="1" vertex="1">
          <mxGeometry x="385.5" y="1555.5" width="70.5" height="17.5" as="geometry" />
        </mxCell>
        <mxCell id="w_8HsDneWyBDN1gnofwD-98" value="&lt;font face=&quot;Comic Sans MS&quot;&gt;&lt;b&gt;Start Here!&lt;/b&gt;&lt;/font&gt;" style="rounded=1;whiteSpace=wrap;html=1;fillColor=none;strokeColor=none;fontColor=#000000;" parent="1" vertex="1">
          <mxGeometry x="599.25" y="1445.5" width="70.5" height="17.5" as="geometry" />
        </mxCell>
        <mxCell id="w_8HsDneWyBDN1gnofwD-99" value="&lt;font face=&quot;Comic Sans MS&quot;&gt;&lt;b style=&quot;&quot;&gt;Euler Path: B, C, D, A, B, D&lt;/b&gt;&lt;/font&gt;" style="rounded=1;whiteSpace=wrap;html=1;fillColor=#FFFF00;strokeColor=#000000;fontColor=#000000;" parent="1" vertex="1">
          <mxGeometry x="499.75" y="1420" width="184.75" height="21" as="geometry" />
        </mxCell>
        <mxCell id="w_8HsDneWyBDN1gnofwD-100" value="&lt;font face=&quot;Comic Sans MS&quot;&gt;&lt;b&gt;Euler Path where all edges are visited once&lt;/b&gt;&lt;/font&gt;" style="rounded=1;whiteSpace=wrap;html=1;fillColor=none;strokeColor=none;fontColor=#000000;" parent="1" vertex="1">
          <mxGeometry x="586.75" y="1506" width="117.75" height="17.5" as="geometry" />
        </mxCell>
        <mxCell id="w_8HsDneWyBDN1gnofwD-101" value="&lt;font face=&quot;Comic Sans MS&quot; color=&quot;#000000&quot;&gt;&lt;b&gt;B&lt;/b&gt;&lt;/font&gt;" style="ellipse;whiteSpace=wrap;html=1;aspect=fixed;fillColor=#00FF00;strokeColor=#000000;" parent="1" vertex="1">
          <mxGeometry x="949.25" y="1463" width="30" height="30" as="geometry" />
        </mxCell>
        <mxCell id="w_8HsDneWyBDN1gnofwD-102" value="" style="endArrow=classic;html=1;rounded=0;endSize=7;strokeWidth=2;strokeColor=#330066;startArrow=none;startFill=0;entryX=1;entryY=0.5;entryDx=0;entryDy=0;exitX=0;exitY=0.5;exitDx=0;exitDy=0;endFill=1;" parent="1" source="w_8HsDneWyBDN1gnofwD-104" target="w_8HsDneWyBDN1gnofwD-105" edge="1">
          <mxGeometry width="50" height="50" relative="1" as="geometry">
            <mxPoint x="927.3800000000001" y="1602.52" as="sourcePoint" />
            <mxPoint x="982.6300000000001" y="1602.52" as="targetPoint" />
          </mxGeometry>
        </mxCell>
        <mxCell id="w_8HsDneWyBDN1gnofwD-103" value="&lt;font face=&quot;Comic Sans MS&quot; color=&quot;#000000&quot;&gt;&lt;b&gt;A&lt;/b&gt;&lt;/font&gt;" style="ellipse;whiteSpace=wrap;html=1;aspect=fixed;fillColor=#B3FF66;strokeColor=#000000;" parent="1" vertex="1">
          <mxGeometry x="814.75" y="1463" width="30" height="30" as="geometry" />
        </mxCell>
        <mxCell id="w_8HsDneWyBDN1gnofwD-104" value="&lt;font face=&quot;Comic Sans MS&quot; color=&quot;#000000&quot;&gt;&lt;b&gt;C&lt;/b&gt;&lt;/font&gt;" style="ellipse;whiteSpace=wrap;html=1;aspect=fixed;fillColor=#B3FF66;strokeColor=#000000;" parent="1" vertex="1">
          <mxGeometry x="949.25" y="1596.75" width="30" height="30" as="geometry" />
        </mxCell>
        <mxCell id="w_8HsDneWyBDN1gnofwD-105" value="&lt;font face=&quot;Comic Sans MS&quot; color=&quot;#000000&quot;&gt;&lt;b&gt;D&lt;/b&gt;&lt;/font&gt;" style="ellipse;whiteSpace=wrap;html=1;aspect=fixed;fillColor=#B3FF66;strokeColor=#000000;" parent="1" vertex="1">
          <mxGeometry x="814.75" y="1596.75" width="30" height="30" as="geometry" />
        </mxCell>
        <mxCell id="w_8HsDneWyBDN1gnofwD-106" value="" style="endArrow=classic;html=1;rounded=0;endSize=7;strokeWidth=2;strokeColor=#330066;startArrow=none;startFill=0;entryX=0.5;entryY=0;entryDx=0;entryDy=0;exitX=0.5;exitY=1;exitDx=0;exitDy=0;endFill=1;" parent="1" source="w_8HsDneWyBDN1gnofwD-101" target="w_8HsDneWyBDN1gnofwD-104" edge="1">
          <mxGeometry width="50" height="50" relative="1" as="geometry">
            <mxPoint x="855" y="1488" as="sourcePoint" />
            <mxPoint x="910" y="1488" as="targetPoint" />
          </mxGeometry>
        </mxCell>
        <mxCell id="w_8HsDneWyBDN1gnofwD-107" value="" style="endArrow=classic;html=1;rounded=0;endSize=7;strokeWidth=2;strokeColor=#330066;startArrow=none;startFill=0;entryX=0.5;entryY=1;entryDx=0;entryDy=0;exitX=0.5;exitY=0;exitDx=0;exitDy=0;endFill=1;" parent="1" source="w_8HsDneWyBDN1gnofwD-105" target="w_8HsDneWyBDN1gnofwD-103" edge="1">
          <mxGeometry width="50" height="50" relative="1" as="geometry">
            <mxPoint x="910" y="1568" as="sourcePoint" />
            <mxPoint x="855" y="1568" as="targetPoint" />
          </mxGeometry>
        </mxCell>
        <mxCell id="w_8HsDneWyBDN1gnofwD-108" value="" style="endArrow=classic;html=1;rounded=0;endSize=7;strokeWidth=2;strokeColor=#330066;startArrow=none;startFill=0;entryX=0;entryY=0.5;entryDx=0;entryDy=0;exitX=1;exitY=0.5;exitDx=0;exitDy=0;endFill=1;" parent="1" source="w_8HsDneWyBDN1gnofwD-103" target="w_8HsDneWyBDN1gnofwD-101" edge="1">
          <mxGeometry width="50" height="50" relative="1" as="geometry">
            <mxPoint x="840" y="1553" as="sourcePoint" />
            <mxPoint x="840" y="1503" as="targetPoint" />
          </mxGeometry>
        </mxCell>
        <mxCell id="w_8HsDneWyBDN1gnofwD-110" value="&lt;font face=&quot;Comic Sans MS&quot;&gt;&lt;b&gt;d=4 (even)&lt;/b&gt;&lt;/font&gt;" style="rounded=1;whiteSpace=wrap;html=1;fillColor=#80FF00;strokeColor=#000000;fontColor=#000000;" parent="1" vertex="1">
          <mxGeometry x="986.75" y="1469.25" width="90" height="17.5" as="geometry" />
        </mxCell>
        <mxCell id="w_8HsDneWyBDN1gnofwD-111" value="&lt;font face=&quot;Comic Sans MS&quot;&gt;&lt;b&gt;d=2 (even)&lt;/b&gt;&lt;/font&gt;" style="rounded=1;whiteSpace=wrap;html=1;fillColor=#99FFFF;strokeColor=#000000;fontColor=#000000;" parent="1" vertex="1">
          <mxGeometry x="986.75" y="1603" width="90" height="17.5" as="geometry" />
        </mxCell>
        <mxCell id="w_8HsDneWyBDN1gnofwD-112" value="&lt;font face=&quot;Comic Sans MS&quot;&gt;&lt;b&gt;d=2 (even)&lt;/b&gt;&lt;/font&gt;" style="rounded=1;whiteSpace=wrap;html=1;fillColor=#99FFFF;strokeColor=#000000;fontColor=#000000;" parent="1" vertex="1">
          <mxGeometry x="736.88" y="1469.25" width="70.5" height="17.5" as="geometry" />
        </mxCell>
        <mxCell id="w_8HsDneWyBDN1gnofwD-113" value="&lt;font face=&quot;Comic Sans MS&quot;&gt;&lt;b&gt;d=2 (even)&lt;/b&gt;&lt;/font&gt;" style="rounded=1;whiteSpace=wrap;html=1;fillColor=#99FFFF;strokeColor=#000000;fontColor=#000000;" parent="1" vertex="1">
          <mxGeometry x="736.25" y="1603" width="70.5" height="17.5" as="geometry" />
        </mxCell>
        <mxCell id="w_8HsDneWyBDN1gnofwD-114" value="&lt;font face=&quot;Comic Sans MS&quot;&gt;&lt;b&gt;Start Here!&lt;/b&gt;&lt;/font&gt;" style="rounded=1;whiteSpace=wrap;html=1;fillColor=none;strokeColor=none;fontColor=#000000;" parent="1" vertex="1">
          <mxGeometry x="991.5" y="1445.5" width="70.5" height="17.5" as="geometry" />
        </mxCell>
        <mxCell id="w_8HsDneWyBDN1gnofwD-115" value="&lt;b style=&quot;font-family: &amp;quot;Comic Sans MS&amp;quot;;&quot;&gt;Euler Path: B, C, D, A, B, E, D, F, B&lt;/b&gt;" style="rounded=1;whiteSpace=wrap;html=1;fillColor=#FFFF00;strokeColor=#000000;fontColor=#000000;" parent="1" vertex="1">
          <mxGeometry x="831.75" y="1420" width="240" height="21" as="geometry" />
        </mxCell>
        <mxCell id="w_8HsDneWyBDN1gnofwD-118" value="&lt;font face=&quot;Comic Sans MS&quot; color=&quot;#000000&quot;&gt;&lt;b&gt;E&lt;/b&gt;&lt;/font&gt;" style="ellipse;whiteSpace=wrap;html=1;aspect=fixed;fillColor=#B3FF66;strokeColor=#000000;" parent="1" vertex="1">
          <mxGeometry x="857.3699999999999" y="1508.5" width="30" height="30" as="geometry" />
        </mxCell>
        <mxCell id="w_8HsDneWyBDN1gnofwD-119" value="&lt;font face=&quot;Comic Sans MS&quot; color=&quot;#000000&quot;&gt;&lt;b&gt;F&lt;/b&gt;&lt;/font&gt;" style="ellipse;whiteSpace=wrap;html=1;aspect=fixed;fillColor=#B3FF66;strokeColor=#000000;" parent="1" vertex="1">
          <mxGeometry x="906.75" y="1549.25" width="30" height="30" as="geometry" />
        </mxCell>
        <mxCell id="w_8HsDneWyBDN1gnofwD-121" value="" style="endArrow=classic;html=1;rounded=0;endSize=7;strokeWidth=2;strokeColor=#4C0099;startArrow=none;startFill=0;endFill=1;entryX=1;entryY=0.26;entryDx=0;entryDy=0;entryPerimeter=0;" parent="1" target="w_8HsDneWyBDN1gnofwD-118" edge="1">
          <mxGeometry width="50" height="50" relative="1" as="geometry">
            <mxPoint x="948.75" y="1490.25" as="sourcePoint" />
            <mxPoint x="926.75" y="1519.25" as="targetPoint" />
          </mxGeometry>
        </mxCell>
        <mxCell id="w_8HsDneWyBDN1gnofwD-122" value="" style="endArrow=classic;html=1;rounded=0;endSize=7;strokeWidth=2;strokeColor=#4C0099;startArrow=none;startFill=0;endFill=1;" parent="1" edge="1">
          <mxGeometry width="50" height="50" relative="1" as="geometry">
            <mxPoint x="865.75" y="1537.25" as="sourcePoint" />
            <mxPoint x="840.75" y="1597.25" as="targetPoint" />
          </mxGeometry>
        </mxCell>
        <mxCell id="w_8HsDneWyBDN1gnofwD-123" value="" style="endArrow=classic;html=1;rounded=0;endSize=7;strokeWidth=2;strokeColor=#4C0099;startArrow=none;startFill=0;endFill=1;" parent="1" edge="1">
          <mxGeometry width="50" height="50" relative="1" as="geometry">
            <mxPoint x="845.75" y="1601.25" as="sourcePoint" />
            <mxPoint x="909.75" y="1574.25" as="targetPoint" />
          </mxGeometry>
        </mxCell>
        <mxCell id="w_8HsDneWyBDN1gnofwD-125" value="" style="endArrow=classic;html=1;rounded=0;endSize=7;strokeWidth=2;strokeColor=#4C0099;startArrow=none;startFill=0;exitX=1;exitY=0;exitDx=0;exitDy=0;endFill=1;" parent="1" source="w_8HsDneWyBDN1gnofwD-119" edge="1">
          <mxGeometry width="50" height="50" relative="1" as="geometry">
            <mxPoint x="849.75" y="1611.25" as="sourcePoint" />
            <mxPoint x="952.75" y="1494.25" as="targetPoint" />
          </mxGeometry>
        </mxCell>
        <mxCell id="w_8HsDneWyBDN1gnofwD-126" value="&lt;font face=&quot;Comic Sans MS&quot;&gt;&lt;b&gt;d=2 (even)&lt;/b&gt;&lt;/font&gt;" style="rounded=1;whiteSpace=wrap;html=1;fillColor=#99FFFF;strokeColor=#000000;fontColor=#000000;" parent="1" vertex="1">
          <mxGeometry x="736.25" y="1514.75" width="70.5" height="17.5" as="geometry" />
        </mxCell>
        <mxCell id="w_8HsDneWyBDN1gnofwD-127" value="&lt;font face=&quot;Comic Sans MS&quot;&gt;&lt;b&gt;d=2 (even)&lt;/b&gt;&lt;/font&gt;" style="rounded=1;whiteSpace=wrap;html=1;fillColor=#99FFFF;strokeColor=#000000;fontColor=#000000;" parent="1" vertex="1">
          <mxGeometry x="986.75" y="1579.25" width="90" height="17.5" as="geometry" />
        </mxCell>
        <mxCell id="w_8HsDneWyBDN1gnofwD-128" value="&lt;font face=&quot;Comic Sans MS&quot; color=&quot;#000000&quot;&gt;&lt;b&gt;B&lt;/b&gt;&lt;/font&gt;" style="ellipse;whiteSpace=wrap;html=1;aspect=fixed;fillColor=#00FF00;strokeColor=#000000;" parent="1" vertex="1">
          <mxGeometry x="1259.25" y="1450.5" width="30" height="30" as="geometry" />
        </mxCell>
        <mxCell id="w_8HsDneWyBDN1gnofwD-130" value="&lt;font face=&quot;Comic Sans MS&quot; color=&quot;#000000&quot;&gt;&lt;b&gt;A&lt;/b&gt;&lt;/font&gt;" style="ellipse;whiteSpace=wrap;html=1;aspect=fixed;fillColor=#B3FF66;strokeColor=#000000;" parent="1" vertex="1">
          <mxGeometry x="1144.75" y="1450.5" width="30" height="30" as="geometry" />
        </mxCell>
        <mxCell id="w_8HsDneWyBDN1gnofwD-131" value="&lt;font face=&quot;Comic Sans MS&quot; color=&quot;#000000&quot;&gt;&lt;b&gt;C&lt;/b&gt;&lt;/font&gt;" style="ellipse;whiteSpace=wrap;html=1;aspect=fixed;fillColor=#B3FF66;strokeColor=#000000;" parent="1" vertex="1">
          <mxGeometry x="1259.25" y="1603" width="30" height="30" as="geometry" />
        </mxCell>
        <mxCell id="w_8HsDneWyBDN1gnofwD-132" value="&lt;font face=&quot;Comic Sans MS&quot; color=&quot;#000000&quot;&gt;&lt;b&gt;D&lt;/b&gt;&lt;/font&gt;" style="ellipse;whiteSpace=wrap;html=1;aspect=fixed;fillColor=#B3FF66;strokeColor=#000000;" parent="1" vertex="1">
          <mxGeometry x="1144.75" y="1603" width="30" height="30" as="geometry" />
        </mxCell>
        <mxCell id="w_8HsDneWyBDN1gnofwD-140" value="&lt;font face=&quot;Comic Sans MS&quot;&gt;&lt;b&gt;Start Here!&lt;/b&gt;&lt;/font&gt;" style="rounded=1;whiteSpace=wrap;html=1;fillColor=none;strokeColor=none;fontColor=#000000;" parent="1" vertex="1">
          <mxGeometry x="1304.75" y="1456.75" width="70.5" height="17.5" as="geometry" />
        </mxCell>
        <mxCell id="w_8HsDneWyBDN1gnofwD-141" value="&lt;b style=&quot;font-family: &amp;quot;Comic Sans MS&amp;quot;;&quot;&gt;Needs to Repeat Edge&lt;/b&gt;" style="rounded=1;whiteSpace=wrap;html=1;fillColor=#FFFF00;strokeColor=#000000;fontColor=#000000;" parent="1" vertex="1">
          <mxGeometry x="1227.25" y="1420" width="157.5" height="21" as="geometry" />
        </mxCell>
        <mxCell id="w_8HsDneWyBDN1gnofwD-142" value="&lt;font face=&quot;Comic Sans MS&quot; color=&quot;#000000&quot;&gt;&lt;b&gt;E&lt;/b&gt;&lt;/font&gt;" style="ellipse;whiteSpace=wrap;html=1;aspect=fixed;fillColor=#B3FF66;strokeColor=#000000;" parent="1" vertex="1">
          <mxGeometry x="1204.75" y="1494.75" width="30" height="30" as="geometry" />
        </mxCell>
        <mxCell id="w_8HsDneWyBDN1gnofwD-143" value="&lt;font face=&quot;Comic Sans MS&quot; color=&quot;#000000&quot;&gt;&lt;b&gt;F&lt;/b&gt;&lt;/font&gt;" style="ellipse;whiteSpace=wrap;html=1;aspect=fixed;fillColor=#B3FF66;strokeColor=#000000;" parent="1" vertex="1">
          <mxGeometry x="1204.75" y="1549.25" width="30" height="30" as="geometry" />
        </mxCell>
        <mxCell id="w_8HsDneWyBDN1gnofwD-151" value="&lt;b style=&quot;font-family: &amp;quot;Comic Sans MS&amp;quot;;&quot;&gt;Euler Graph&lt;/b&gt;" style="rounded=1;whiteSpace=wrap;html=1;fillColor=#FFFF00;strokeColor=#000000;fontColor=#000000;" parent="1" vertex="1">
          <mxGeometry x="736.75" y="1420" width="92.43" height="21" as="geometry" />
        </mxCell>
        <mxCell id="w_8HsDneWyBDN1gnofwD-152" value="&lt;b style=&quot;font-family: &amp;quot;Comic Sans MS&amp;quot;;&quot;&gt;Euler Circuit: Starts &amp;amp; Ends at Vertix B&lt;/b&gt;" style="rounded=1;whiteSpace=wrap;html=1;fillColor=#FFFF00;strokeColor=#000000;fontColor=#000000;arcSize=5;" parent="1" vertex="1">
          <mxGeometry x="985.28" y="1495.5" width="92.43" height="53.75" as="geometry" />
        </mxCell>
        <mxCell id="w_8HsDneWyBDN1gnofwD-153" value="&lt;b style=&quot;font-family: &amp;quot;Comic Sans MS&amp;quot;;&quot;&gt;Not a Euler Circuit! Ends at a Different Vertix than Start.&lt;/b&gt;" style="rounded=1;whiteSpace=wrap;html=1;fillColor=#FFFF00;strokeColor=#000000;fontColor=#000000;arcSize=5;" parent="1" vertex="1">
          <mxGeometry x="386.7800000000001" y="1590.5" width="185.93" height="42.5" as="geometry" />
        </mxCell>
        <mxCell id="w_8HsDneWyBDN1gnofwD-154" value="&lt;b style=&quot;font-family: &amp;quot;Comic Sans MS&amp;quot;;&quot;&gt;Not Euler Graph&lt;/b&gt;" style="rounded=1;whiteSpace=wrap;html=1;fillColor=#FF33FF;strokeColor=#000000;fontColor=#000000;" parent="1" vertex="1">
          <mxGeometry x="384.75" y="1420" width="110" height="21" as="geometry" />
        </mxCell>
        <mxCell id="w_8HsDneWyBDN1gnofwD-155" value="&lt;b style=&quot;font-family: &amp;quot;Comic Sans MS&amp;quot;;&quot;&gt;Not Euler Graph&lt;/b&gt;" style="rounded=1;whiteSpace=wrap;html=1;fillColor=#FF33FF;strokeColor=#000000;fontColor=#000000;" parent="1" vertex="1">
          <mxGeometry x="1114.75" y="1420" width="110" height="21" as="geometry" />
        </mxCell>
        <mxCell id="w_8HsDneWyBDN1gnofwD-156" value="" style="endArrow=none;html=1;rounded=0;endSize=7;strokeWidth=2;strokeColor=#000000;startArrow=none;startFill=0;entryX=1;entryY=0;entryDx=0;entryDy=0;exitX=0;exitY=1;exitDx=0;exitDy=0;" parent="1" source="w_8HsDneWyBDN1gnofwD-128" target="w_8HsDneWyBDN1gnofwD-142" edge="1">
          <mxGeometry width="50" height="50" relative="1" as="geometry">
            <mxPoint x="1235.75" y="1488.25" as="sourcePoint" />
            <mxPoint x="1216.75" y="1532.25" as="targetPoint" />
          </mxGeometry>
        </mxCell>
        <mxCell id="w_8HsDneWyBDN1gnofwD-157" value="" style="endArrow=none;html=1;rounded=0;endSize=7;strokeWidth=2;strokeColor=#000000;startArrow=none;startFill=0;entryX=1;entryY=1;entryDx=0;entryDy=0;exitX=0;exitY=0;exitDx=0;exitDy=0;" parent="1" source="w_8HsDneWyBDN1gnofwD-142" target="w_8HsDneWyBDN1gnofwD-130" edge="1">
          <mxGeometry width="50" height="50" relative="1" as="geometry">
            <mxPoint x="1273.75" y="1486.25" as="sourcePoint" />
            <mxPoint x="1240.75" y="1509.25" as="targetPoint" />
          </mxGeometry>
        </mxCell>
        <mxCell id="w_8HsDneWyBDN1gnofwD-158" value="" style="endArrow=none;html=1;rounded=0;endSize=7;strokeWidth=2;strokeColor=#000000;startArrow=none;startFill=0;entryX=0.5;entryY=1;entryDx=0;entryDy=0;exitX=0.5;exitY=0;exitDx=0;exitDy=0;" parent="1" source="w_8HsDneWyBDN1gnofwD-143" target="w_8HsDneWyBDN1gnofwD-142" edge="1">
          <mxGeometry width="50" height="50" relative="1" as="geometry">
            <mxPoint x="1273.75" y="1486.25" as="sourcePoint" />
            <mxPoint x="1240.75" y="1509.25" as="targetPoint" />
          </mxGeometry>
        </mxCell>
        <mxCell id="w_8HsDneWyBDN1gnofwD-159" value="" style="endArrow=none;html=1;rounded=0;endSize=7;strokeWidth=2;strokeColor=#000000;startArrow=none;startFill=0;entryX=1;entryY=0;entryDx=0;entryDy=0;exitX=0;exitY=1;exitDx=0;exitDy=0;" parent="1" source="w_8HsDneWyBDN1gnofwD-143" target="w_8HsDneWyBDN1gnofwD-132" edge="1">
          <mxGeometry width="50" height="50" relative="1" as="geometry">
            <mxPoint x="1229.75" y="1559.25" as="sourcePoint" />
            <mxPoint x="1229.75" y="1535.25" as="targetPoint" />
          </mxGeometry>
        </mxCell>
        <mxCell id="w_8HsDneWyBDN1gnofwD-160" value="" style="endArrow=none;html=1;rounded=0;endSize=7;strokeWidth=2;strokeColor=#000000;startArrow=none;startFill=0;entryX=1;entryY=1;entryDx=0;entryDy=0;exitX=0;exitY=0;exitDx=0;exitDy=0;" parent="1" source="w_8HsDneWyBDN1gnofwD-131" target="w_8HsDneWyBDN1gnofwD-143" edge="1">
          <mxGeometry width="50" height="50" relative="1" as="geometry">
            <mxPoint x="1218.75" y="1585.25" as="sourcePoint" />
            <mxPoint x="1180.75" y="1617.25" as="targetPoint" />
          </mxGeometry>
        </mxCell>
        <mxCell id="w_8HsDneWyBDN1gnofwD-161" value="&lt;font face=&quot;Comic Sans MS&quot;&gt;&lt;b&gt;No other Edges possible, will have to Revisit an visited Edge&lt;/b&gt;&lt;/font&gt;" style="rounded=1;whiteSpace=wrap;html=1;fillColor=none;strokeColor=none;fontColor=#000000;" parent="1" vertex="1">
          <mxGeometry x="1249.75" y="1524.75" width="125.5" height="17.5" as="geometry" />
        </mxCell>
        <mxCell id="kjtb91--_xFC1Fal_jC_-1" value="" style="rounded=1;whiteSpace=wrap;html=1;fillColor=none;strokeColor=none;fontColor=#000000;arcSize=3;" vertex="1" parent="1">
          <mxGeometry x="455" y="655" width="95" height="148" as="geometry" />
        </mxCell>
        <mxCell id="kjtb91--_xFC1Fal_jC_-2" value="" style="rounded=1;whiteSpace=wrap;html=1;fillColor=none;strokeColor=none;fontColor=#000000;arcSize=3;" vertex="1" parent="1">
          <mxGeometry x="1200" y="655" width="95" height="148" as="geometry" />
        </mxCell>
        <mxCell id="kjtb91--_xFC1Fal_jC_-5" value="" style="rounded=1;whiteSpace=wrap;html=1;fillColor=none;strokeColor=none;fontColor=#000000;arcSize=3;" vertex="1" parent="1">
          <mxGeometry x="1110" y="930" width="160" height="148" as="geometry" />
        </mxCell>
        <mxCell id="kjtb91--_xFC1Fal_jC_-6" value="&lt;b style=&quot;color: rgb(0, 0, 0); font-family: &amp;quot;Comic Sans MS&amp;quot;;&quot;&gt;1&lt;/b&gt;" style="ellipse;whiteSpace=wrap;html=1;aspect=fixed;fillColor=#00FF00;strokeColor=#000000;" vertex="1" parent="1">
          <mxGeometry x="911.25" y="1238" width="30" height="30" as="geometry" />
        </mxCell>
        <mxCell id="kjtb91--_xFC1Fal_jC_-7" value="&lt;font face=&quot;Comic Sans MS&quot; color=&quot;#000000&quot;&gt;&lt;b&gt;2&lt;/b&gt;&lt;/font&gt;" style="ellipse;whiteSpace=wrap;html=1;aspect=fixed;fillColor=#00FF00;strokeColor=#000000;" vertex="1" parent="1">
          <mxGeometry x="981.25" y="1186" width="30" height="30" as="geometry" />
        </mxCell>
        <mxCell id="kjtb91--_xFC1Fal_jC_-8" value="&lt;b style=&quot;color: rgb(0, 0, 0); font-family: &amp;quot;Comic Sans MS&amp;quot;;&quot;&gt;4&lt;/b&gt;" style="ellipse;whiteSpace=wrap;html=1;aspect=fixed;fillColor=#00FF00;strokeColor=#000000;" vertex="1" parent="1">
          <mxGeometry x="941.25" y="1308" width="30" height="30" as="geometry" />
        </mxCell>
        <mxCell id="kjtb91--_xFC1Fal_jC_-9" value="&lt;font face=&quot;Comic Sans MS&quot; color=&quot;#000000&quot;&gt;&lt;b&gt;5&lt;/b&gt;&lt;/font&gt;" style="ellipse;whiteSpace=wrap;html=1;aspect=fixed;fillColor=#00FF00;strokeColor=#000000;" vertex="1" parent="1">
          <mxGeometry x="1021.25" y="1308" width="30" height="30" as="geometry" />
        </mxCell>
        <mxCell id="kjtb91--_xFC1Fal_jC_-10" value="" style="endArrow=none;html=1;rounded=0;endSize=7;strokeWidth=2;strokeColor=#000000;startArrow=none;startFill=0;entryX=0.5;entryY=1;entryDx=0;entryDy=0;exitX=0;exitY=0;exitDx=0;exitDy=0;" edge="1" parent="1" source="kjtb91--_xFC1Fal_jC_-8" target="kjtb91--_xFC1Fal_jC_-6">
          <mxGeometry width="50" height="50" relative="1" as="geometry">
            <mxPoint x="1042.5" y="1333" as="sourcePoint" />
            <mxPoint x="957.5" y="1333" as="targetPoint" />
          </mxGeometry>
        </mxCell>
        <mxCell id="kjtb91--_xFC1Fal_jC_-11" value="&lt;font face=&quot;Comic Sans MS&quot; color=&quot;#000000&quot;&gt;&lt;b&gt;3&lt;/b&gt;&lt;/font&gt;" style="ellipse;whiteSpace=wrap;html=1;aspect=fixed;fillColor=#00FF00;strokeColor=#000000;" vertex="1" parent="1">
          <mxGeometry x="1051.25" y="1238" width="30" height="30" as="geometry" />
        </mxCell>
        <mxCell id="kjtb91--_xFC1Fal_jC_-12" value="" style="endArrow=none;html=1;rounded=0;endSize=7;strokeWidth=2;strokeColor=#000000;startArrow=none;startFill=0;entryX=1;entryY=0.5;entryDx=0;entryDy=0;exitX=0;exitY=0.5;exitDx=0;exitDy=0;" edge="1" parent="1" source="kjtb91--_xFC1Fal_jC_-9" target="kjtb91--_xFC1Fal_jC_-8">
          <mxGeometry width="50" height="50" relative="1" as="geometry">
            <mxPoint x="955.5" y="1322" as="sourcePoint" />
            <mxPoint x="936.5" y="1278" as="targetPoint" />
          </mxGeometry>
        </mxCell>
        <mxCell id="kjtb91--_xFC1Fal_jC_-13" value="" style="endArrow=none;html=1;rounded=0;endSize=7;strokeWidth=2;strokeColor=#000000;startArrow=none;startFill=0;entryX=1;entryY=0;entryDx=0;entryDy=0;exitX=0.5;exitY=1;exitDx=0;exitDy=0;" edge="1" parent="1" source="kjtb91--_xFC1Fal_jC_-11" target="kjtb91--_xFC1Fal_jC_-9">
          <mxGeometry width="50" height="50" relative="1" as="geometry">
            <mxPoint x="1031.5" y="1333" as="sourcePoint" />
            <mxPoint x="981.5" y="1333" as="targetPoint" />
          </mxGeometry>
        </mxCell>
        <mxCell id="kjtb91--_xFC1Fal_jC_-14" value="" style="endArrow=none;html=1;rounded=0;endSize=7;strokeWidth=2;strokeColor=#000000;startArrow=none;startFill=0;entryX=0;entryY=0;entryDx=0;entryDy=0;exitX=1;exitY=1;exitDx=0;exitDy=0;" edge="1" parent="1" source="kjtb91--_xFC1Fal_jC_-7" target="kjtb91--_xFC1Fal_jC_-11">
          <mxGeometry width="50" height="50" relative="1" as="geometry">
            <mxPoint x="1006.5" y="1208" as="sourcePoint" />
            <mxPoint x="1056.5" y="1322" as="targetPoint" />
          </mxGeometry>
        </mxCell>
        <mxCell id="kjtb91--_xFC1Fal_jC_-15" value="" style="endArrow=none;html=1;rounded=0;endSize=7;strokeWidth=2;strokeColor=#000000;startArrow=none;startFill=0;entryX=0;entryY=1;entryDx=0;entryDy=0;exitX=1;exitY=0;exitDx=0;exitDy=0;" edge="1" parent="1" source="kjtb91--_xFC1Fal_jC_-6" target="kjtb91--_xFC1Fal_jC_-7">
          <mxGeometry width="50" height="50" relative="1" as="geometry">
            <mxPoint x="1016.5" y="1218" as="sourcePoint" />
            <mxPoint x="1065.5" y="1252" as="targetPoint" />
          </mxGeometry>
        </mxCell>
        <mxCell id="kjtb91--_xFC1Fal_jC_-17" value="" style="endArrow=none;html=1;rounded=0;endSize=7;strokeWidth=2;strokeColor=#000000;startArrow=none;startFill=0;entryX=0.5;entryY=0;entryDx=0;entryDy=0;exitX=0.5;exitY=1;exitDx=0;exitDy=0;" edge="1" parent="1" source="kjtb91--_xFC1Fal_jC_-7" target="kjtb91--_xFC1Fal_jC_-8">
          <mxGeometry width="50" height="50" relative="1" as="geometry">
            <mxPoint x="952.75" y="1266" as="sourcePoint" />
            <mxPoint x="1061.75" y="1263" as="targetPoint" />
          </mxGeometry>
        </mxCell>
        <mxCell id="kjtb91--_xFC1Fal_jC_-18" value="" style="endArrow=none;html=1;rounded=0;endSize=7;strokeWidth=2;strokeColor=#000000;startArrow=none;startFill=0;entryX=0.5;entryY=0;entryDx=0;entryDy=0;exitX=0.5;exitY=1;exitDx=0;exitDy=0;" edge="1" parent="1" source="kjtb91--_xFC1Fal_jC_-7" target="kjtb91--_xFC1Fal_jC_-9">
          <mxGeometry width="50" height="50" relative="1" as="geometry">
            <mxPoint x="1006.75" y="1226" as="sourcePoint" />
            <mxPoint x="963.75" y="1322" as="targetPoint" />
          </mxGeometry>
        </mxCell>
        <mxCell id="kjtb91--_xFC1Fal_jC_-21" value="" style="rounded=1;whiteSpace=wrap;html=1;fillColor=none;strokeColor=none;fontColor=#000000;arcSize=3;" vertex="1" parent="1">
          <mxGeometry x="499.75" y="932" width="160" height="148" as="geometry" />
        </mxCell>
      </root>
    </mxGraphModel>
  </diagram>
</mxfile>
